<?xml version="1.0" encoding="UTF-8"?>
<!DOCTYPE svg PUBLIC "-//W3C//DTD SVG 1.1//EN" "http://www.w3.org/Graphics/SVG/1.1/DTD/svg11.dtd">
<!-- Creator: CorelDRAW 2021.5 -->
<svg xmlns="http://www.w3.org/2000/svg" xml:space="preserve" width="1032.21mm" height="627.752mm" version="1.1" style="shape-rendering:geometricPrecision; text-rendering:geometricPrecision; image-rendering:optimizeQuality; fill-rule:evenodd; clip-rule:evenodd"
viewBox="0 0 1108577.69 674198.67"
 xmlns:xlink="http://www.w3.org/1999/xlink"
 xmlns:xodm="http://www.corel.com/coreldraw/odm/2003">
 <defs>
  <style type="text/css">
   <![CDATA[
    .fil0 {fill:white}
   ]]>
  </style>
 </defs>
 <g id="Слой_x0020_1">
  <metadata id="CorelCorpID_0Corel-Layer"/>
  <g id="_105553303187072">
   <path class="fil0" d="M333947.02 337780.84l5936.26 0c2108.78,0 3160.86,745.24 5628.57,901.61l12126.63 1230.15c1889.26,272.79 4388.86,148.32 6269.74,557.08 4069.45,884.54 10521.45,1037.37 11931.81,1425.08 2754.46,756.2 5867.85,652.77 8828.09,966.91 918.91,97.41 1806.56,425.94 2916.85,645.04 2932.53,578.77 3916.95,111.48 8656.36,1138.64 1122.86,243.69 1878.73,161.96 3255.37,306.41 1219.73,128.02 5009.09,137.15 6103.59,426.37 1947.79,514.98 3626.33,901.61 5807.92,1019.11 2024.26,109.01 3845.1,574.91 5641.45,888.73 1885.71,329.5 4341.82,299.32 6260.93,565.78 1897.31,263.23 3618.27,815.05 5617.18,912.89 1944.67,95.05 4239.14,67.02 6114.01,712.7l11693.06 1663.82c4379.73,94.73 7519.54,1273.64 11876.82,1480.17 4009.85,189.67 2825.99,480.93 5644.89,884.86 4121.33,590.69 4010.92,-104.18 8986.29,1105.99 941.24,228.97 1890.33,356.24 2880.66,383.95 2575,72.17 3779.58,522.71 5929.6,897.43 1806.88,315.22 4315.29,266.46 6036.57,493.61 3045.73,402.1 5635.87,1196.85 8813.8,1278.16 1875.94,48.11 1335.29,-61.65 2811.28,453.65l14705.5 1916.32c1952.3,5.26 4074.07,981.2 9195.93,1192.56 1070.66,44.25 1818.37,231.12 2743.94,521.31 895.71,281.17 2010.19,537.1 2933.93,627.53 2137.45,209.32 4029.5,91.93 6023.26,506.92 3406.16,709.59 3082.89,423.15 6032.28,794.75 1839.1,231.44 3569.19,948.66 5438.9,1091.39 1693.57,128.99 4914.68,187.52 6221.62,605.09 2503.79,800.34 6081.36,545.48 8607.6,1187.4 1143.91,290.62 1599.71,463.75 2954.01,607.56 1911.59,203.31 4025.64,232.41 5769.04,761.03 1582.85,480.29 4145.17,743.95 6107.99,719.04 3150.33,-39.63 3073.54,494.04 5549.63,980.23 1742.01,342.17 4307.13,328.86 6091.56,735.47 3182.12,724.3 5521.17,475.46 8666.88,1127.8 4441.81,921.38 7479.48,792.71 8938.92,1153.04l17704.72 2775.94c1951.65,504.45 3536.22,596.6 5891.8,638.38 2398.22,42.74 3325.5,1021.58 5641.45,1185.26 2267.84,160.56 4085.56,-30.18 6009.51,520.56l11491.15 1865.84c4823.5,114.27 6503.12,1232.94 11881.23,1475.55 1639.02,74 1196.96,351.95 2545.25,719.68 633.12,172.91 2605.82,373 3135.51,426.7l5608.16 921.59c1700.23,189.34 4845.63,226.5 6226.89,599.93 2941.34,795.4 5737.47,608.95 8447.04,1347.86 3250.22,887.01 6105.95,656.64 8766.55,1325.63l5922.19 904.73c1895.59,298.03 3113.82,880.99 5690.21,1136.28 1400.48,138.76 1836.31,-39.95 2973.23,292.02 769.08,224.36 1992.57,640.85 2619.78,942 -43.5,1952.3 -1183.21,4970.75 -2269.56,6634.57 -803.24,1229.5 -1718.6,2386.41 -2904.18,3329.05l-5572.07 3926.51c-409.4,209.21 -516.7,179.14 -995.91,488.02 -2480.06,1596.81 -2473.4,1395.54 -4860.45,2560.18l-4352.34 1880.45c-664.69,192.89 -2378.67,311.67 -2883.88,381.48 -4268.89,590.05 -5237.2,1579.3 -9827.65,514.98 -2777.87,-643.96 -5731.45,-517.13 -8446.28,-1348.61 -993.98,-304.37 -1437.11,-398.99 -2700.23,-564.49 -1545.58,-202.23 -1458.37,-442.38 -2453.31,-811.51 -912.89,-339.06 -1654.7,-285.47 -2777.55,-487.7 -1392.11,-250.67 -1507.45,-562.34 -2678.42,-883.46l-10474.73 -2585.52c-5058.81,-669.2 -2726.43,-635.59 -5324.2,-1205.88 -770.59,-169.05 -1867.56,-218.13 -2842.53,-422.51l-5773.23 -1053.48c-962.29,-110.73 -1528.18,-463.1 -2537.41,-727.41 -2035.85,-532.91 -3771.1,-233.16 -5559.4,-970.78l-7987.48 -1807.52c-1256.14,-108.37 -1995.9,-120.29 -3160.11,-401.78l-5447.92 -1081.83c-2249.26,-180.22 -2684.76,-1077 -5331.5,-1198.68 -2474.79,-113.52 -3215.2,-899.9 -5378.22,-1151.96 -2041.33,-238.43 -3613.76,-1000.21 -5635.12,-1191.91 -4049.48,-383.95 -4407.76,-880.35 -8369.6,-1425.08l-7905.42 -1889.58c-1759.2,-510.47 -4279.85,-279.13 -5955.6,-871.54 -2404.99,-850.49 -3752.52,-558.15 -5500.12,-1029.63 -1062.61,-286.86 -890.87,-555.04 -2411.32,-853.71 -630,-123.72 -1949.83,-166.47 -2946.6,-318.33l-7965.03 -1830.29c-1090.64,-381.48 -1734.92,-351.95 -3043.26,-518.52 -2448.48,-311.67 -3572.41,-880.99 -5408.4,-1121.78 -2432.59,-318.76 -3738.13,-862.09 -5406.14,-1124.04 -4123.48,-647.08 -3669.82,-830.52 -5379.61,-1150.24 -2018.89,-377.51 -4312.07,-311.56 -5868.92,-958.11 -1531.72,-635.91 -3655.75,-565.13 -5410.76,-1118.99 -1860.47,-587.26 -4015.54,-555.68 -5782.36,-1044.67 -3885.8,-1074.96 -3225.3,-471.27 -5558.43,-971.53 -2435.06,-522.28 -1246.9,-737.62 -5494.85,-1332.18l-5444.05 -1085.7c-2314.88,-315.86 -3092.12,-856.4 -5369.73,-1160.45 -4171.48,-556.65 -3107.16,-807 -5329.78,-1199.97 -1077.32,-190.74 -1970.56,-26.63 -3046.48,-218.77 -1300.28,-231.66 -1513.79,-559.55 -2704.41,-857.15 -689.93,-172.48 -1926.31,-179.79 -2880.66,-384.17 -1287.28,-275.91 -1231.54,-480.29 -2498.21,-767.15 -2019.64,-457.41 -3484.34,-200.51 -5600.75,-929.32 -1694,-582.96 -3706.98,-432.6 -5582.92,-947.26 -1268.38,-348.08 -697.56,-542.69 -2483.06,-781.76 -3257.2,-436.15 -5120.46,-1146.05 -8624.78,-1466.86 -1549.98,-141.98 -2491.55,-963.37 -5352.23,-1178.27 -2141,-160.56 -3165.37,-1032.75 -5334.08,-1195.78 -935.66,-70.13 -1890.22,-196.33 -2845.97,-418.96l-5696.76 -1129.84c-883.46,-245.84 -1350.43,-600.25 -2486.29,-778.96 -1196.21,-188.27 -1725.58,-231.12 -2933.6,-331.33l-5660.36 -1166.68c-2022.54,-268.6 -3328.72,-932.55 -5374.67,-1155.18 -2224.77,-241.86 -1233.37,-183.01 -2828.14,-733.75 -1785.83,-617.01 -3851.01,-139.94 -5847.55,-682.63 -1018.03,-276.55 -1304.47,-666.73 -2370.94,-893.88 -1000.85,-213.51 -2004.92,-195.68 -2885.92,-379.33l-5484.01 -1045.74c-2253.55,-314.89 -3449.33,-928.68 -5733.28,-1093.86 -1990.96,-144.02 -3288.02,-876.38 -5280.7,-1249.05l-8318.05 -1476.95c-1936.3,-355.92 -3386.61,-983.45 -5425.58,-1104.71 -1942.53,-115.35 -1257.1,-432.93 -2656.62,-905.16 -819.67,-276.23 -1773.59,-198.47 -2910.4,-354.42 -72.92,-10.2 -937.81,-206.21 -1185.36,-299.11l-9268.85 -2307.14c-1286.21,-223.93 -1226.28,-519.17 -2440.96,-823.75 -1419.92,-356.24 -2869.81,-366.02 -4152.58,-893.34l-6772.79 -1538.28c-2012.98,-288.15 -4199.51,-204.06 -6110.46,-716.57 -1495.53,-401.14 -4022.2,-764.68 -5744.56,-785.3 -2852.19,-34.05 -5057.74,948.98 -5057.74,-1768.97zm243095.32 -35321.48c-3226.69,0 -5850.45,-485.87 -8885.65,-909.67 -4029.18,-562.34 -5488.3,-209.64 -9774.38,-1207.81l-7169.31 -548.27c-1998.91,38.56 -2016.85,191.81 -2962.28,-896.03 383.09,-1435.6 5012.42,-5709.44 6654.87,-6998.87l11943.73 -8833.46c694.12,-383.2 542.04,-341.1 1085.37,-695.52 505.96,-329.93 671.03,-382.88 1116.95,-664.37l18115.63 -9785.23c905.48,-387.39 536.03,-341.42 1129.19,-652.02l4173.85 -1762.42c1130.27,-405.22 590.8,-476.42 1785.83,-885.5 430.88,-147.57 939.96,-198.37 1426.15,-354.74 657.71,-211.47 649.98,-293.84 1202.87,-577.81 2329.91,-1197.18 5181.46,-1825.78 7679.67,-2709.25l8041.82 -2346.67c726.02,-269.68 2503.79,-377.29 3109.2,-453.01 1315.42,-164.43 2067.43,-171.41 3187.82,-373.64 1266.23,-228.65 1679.29,-603.69 2958.09,-603.69 11030.84,0 4834.78,32.54 11999.9,1060.14 3506.79,503.06 5710.08,1922.12 7419.12,2376.09 1547.83,410.91 1140.15,232.84 2455.46,809.14 2237.77,980.55 3167.84,-65.51 4542.76,1987.74l-2809.13 1940.16c-1785.83,965.09 -8626.29,4311.32 -10246.29,4594.64 -1981.4,346.36 -6260.93,3030.37 -8608.99,3857.66 -1840.6,648.58 -5134.21,2960.56 -7275.85,3706.23 -1136.93,396.19 -341.85,129.09 -958.54,525.61l-5685.16 2922.33c-339.38,131.78 -756.2,191.38 -1139.72,344.64l-3287.05 1758.77c-2117.05,1240.78 -4426.99,2028.12 -6567.23,3227.77l-1512.39 862.41c-247.23,86.56 -287.83,45.64 -696.27,194.28l-3462.65 1880.13c-54.02,33.94 -123.08,85.49 -179.14,117.71l-1717.85 656.64c-2211.77,1012.13 -4611.71,2792.37 -6873.32,3515.28 -1243.14,396.84 -2151.42,1089.88 -3295,1750.71l-4420.11 2110.18c-1113.41,478.46 -1213.61,1059.71 -2501.97,1059.71zm68861.86 -59957.63c3512.81,0 6495.49,537.42 9793.28,892.59 1279.55,137.69 2953.26,186.77 4347.08,401.67 1537.31,237.03 2189.76,913.32 3682.5,1066.79l5664.54 1459.12c999.45,366.34 529.69,404.25 1578.98,795.07 614.21,228.97 1285.57,271.4 1868.96,505.96 954.24,384.17 408.76,401.67 1527.11,847.27l6685.05 2813.42c1236.81,521.31 2831.25,1659.53 4737.37,2386.3l3297.79 1451.07c773.06,417.89 457.52,452.58 1460.84,913.97 1319.29,606.16 1984.95,887.65 3375.01,1374.17 874.01,305.76 914.61,486.95 1598.96,775.53 818.92,345.29 1086.45,213.83 1890.33,484.15 1743.41,585.75 951.77,756.84 3538.69,1210.49 1426.15,250.02 787.02,62.08 1776.38,598.1 788.42,427.66 720.75,507.25 1650.83,723.98 -853.28,1612.6 -577.05,3183.2 -1406.5,4826.62 -1446.13,2865.62 -2250.33,2468.78 -4983.74,3921.24l-5067.62 2649.64c-410.16,204.7 -416.49,161.96 -805.6,381.37l-1693.57 977.76c-552.14,215.66 -237.67,4.62 -861.77,325.74 -520.56,268.18 -161.96,122.65 -709.16,478.14 -2232.18,1450.64 -4647.58,2151.52 -6984.16,3404.44l-5852.49 3052.06c-691.01,327.46 -1218.98,338.31 -1957.67,713.77 -1209.1,614.54 -2286.74,952.52 -3476.29,1569.53 -1096.54,569 -2594.87,1408.22 -3678.84,1663.82 -513.58,121.36 -464.5,37.91 -962.4,225.11 -1334.22,501.98 -227.15,421.33 -2741.79,1116.95l-5308.41 2111.79c-779.29,221.89 -1538.71,262.91 -2192.87,478.57 -1054.87,347.76 -850.17,609.6 -1843.61,828.05 -706.04,155.3 -1843.72,66.91 -2604.43,66.91l2755.86 -6445.66c394.69,-570.29 1009.98,-1238.2 1563.19,-1701.95 5863.02,-4912.64 8245.56,-3894.18 12333.91,-6365.75l3119.08 -1629.89c1805.38,-1284.49 6941.73,-5122.5 6941.73,-7305.6 0,-1036.61 -1670.48,-2278.68 -2398,-2944.77 -44.79,-41.35 -109.01,-101.71 -153.9,-142.73l-4106.29 -3314.33c-1839.42,-1110.18 -3931.34,-1687.24 -6031.96,-2279.01 -1095.15,-308.56 -1149.81,-697.02 -2405.63,-1156.26l-6655.62 -2545.89c-1375.67,-333.69 -1098.69,-656.21 -2433.66,-1127.8 -1629.89,-575.98 -5153.11,-2305 -6382.29,-2522.69 -769.84,-136.4 -798.94,-62.08 -1443.66,-336.91 -2543.42,-1085.7 -2556.74,-796.15 -3989.12,-1353.87 -1124.36,-437.87 -1444.41,-855.76 -2883.13,-975.29 2346.35,-3504 1341.31,-5342.78 6826.71,-5342.78zm71236.67 5045.82c-3090.3,0 -5495.61,-387.71 -8588.37,-612.82 -1233.58,-89.36 -2785.93,-278.06 -3715.68,-736.54 -1497.68,-739.01 -2200.6,-444.52 -3507.11,-945.22 -861.02,-330.14 -381.8,-328.75 -1369.01,-708.83 -1708.72,-658.03 -3390.8,-952.09 -4952.27,-1874.54 -792.28,-468.37 -223.6,-333.69 -1285.14,-792.6l-13361.08 -7119.48c-422.19,-228.55 -64.22,-59.61 -627.21,-263.23 -1997.19,-721.83 -3423.02,-1918.68 -5572.72,-2441.39 -2131.55,-518.2 -2405.31,-1033.5 -5102.63,-1427.22 -1288.68,-188.27 -844.16,-206.85 -1789.37,-585.11 -2429.04,-972.82 -16105.01,-934.26 -18911.99,-222.96 -1442.26,365.69 -900.33,711.3 -3040.25,818.92 -2517.11,126.62 -3893.43,945.54 -6366.07,1351.19l-5983.95 1732.88c-918.48,482.33 105.57,202.98 -1196.85,584.36 -742.88,217.38 -1029.96,118.46 -1755.65,321.87l-6947 2551.48c-852.21,453.22 -357.21,453.98 -1292.87,784.87l-8287.23 3288.45c-997.41,527.22 -1693.36,628.18 -2666.82,1192.24 -2483.17,1438.82 -5334.08,2261.61 -7744.97,3831.14l-2681.11 1177.2c-3093.52,1790.02 -6283.05,3120.8 -9314.5,4932.94 -552.14,330.25 -202.55,160.24 -745.24,442.05l-2480.7 1378.14c-1105.67,503.7 -1590.26,845.23 -2539.56,1318.86 -845.23,422.08 -442.81,247.88 -1108.14,672.75l-7412.25 4163.75c-434.32,267.1 -20.3,-25.56 -540.54,349.91 -1401.23,1012.02 -2978.17,1604.22 -4396.59,2430.12l-13354.1 8017.01c-497.04,324.24 -661.15,357.21 -1144.23,636.55 -713.02,412.63 -593.92,417.25 -1256.14,821.82l-4865.6 2851.55c-2200.18,1422.28 -6503.87,3777.76 -8237.39,5119.82l-5794.39 4000.4c-2227.13,1751.78 -4921.67,3153.77 -6949.68,5219.7l-1032.1 1045.74c-44.89,41.35 -108.69,102.03 -154.98,141.98l-2816.54 2526.24c-1669.41,1590.58 -3440.2,3216.17 -4693.44,5101.56 -199.87,300.39 -250.35,363.55 -516.48,671.03l-5375.64 7981.14c-502.09,1303.82 -8.05,292.34 -700.13,1377.71 -1838.78,2883.13 -2473.94,6601.71 -3655.43,9701.13l-1574.04 8220.96c-267.85,2134.34 -454.73,5710.83 -73.68,7346.95 1804.09,865.96 6163.52,773.06 8607.28,891.2 1317.89,63.47 1423.79,289.23 2957.12,308.13 2412.29,29.86 4265.14,19.65 6288.64,241.22 1060.78,115.99 2085.58,-31.15 3150.23,114.59 772.74,106.22 1786.58,410.91 2766.06,499.3 3800.21,343.57 8263.71,-45.97 11974.56,1085.37 2894.29,882.71 6557.89,301.47 8895.86,899.14 2979.46,762.21 5687.63,819.35 8582.68,1212.32 2170.43,294.81 3757.89,667.16 5625.34,904.84 1083.33,138.12 2087.3,5.58 3151.3,113.63 864.56,87.96 1823.31,371.6 2666.82,598 2751.67,738.69 5805.56,640.21 8933.02,862.41 1019.43,72.28 1769.29,374.07 2718.38,546.23 3154.74,572.54 16994.06,1518.73 20742.72,1518.73 961.01,0 1804.84,-1724.83 2026.4,-2426.04 544.73,-1724.4 1037.26,-4460.28 2972.8,-6228.28 1759.2,-1606.69 9532.84,-5019.83 12057.36,-6345.78 896.35,-471.16 321.45,-351.62 1530.22,-844.16l22339.95 -12387.83c803.24,-403.61 812.69,-476.1 1490.38,-884.54 558.37,-336.59 960.15,-408.44 1590.15,-784.23l15721.81 -8320.52c1897.74,-791.32 -1363.64,630 437.22,-156.7l405.65 -187.95c770.16,-418.96 467.29,-444.85 1526.35,-848.02l9498.79 -4748.54c79.9,-41.78 324.34,-147.57 404.89,-188.59 484.58,-246.8 392.33,-189.34 758.67,-428.74 974.65,-637.41 108.69,-372.03 1564.27,-810.22l26636.66 -12543.56c922.66,-303.62 843.08,-392.65 1573.72,-801.09 380.73,-212.76 533.56,-262.59 792.6,-394.37l4202.41 -2030.91c2392.31,-1285.14 4991.47,-1782.29 7549.93,-3432.47 1327.67,-856.08 3413.57,-1430.98 4875.48,-1951.22 786.59,-280.1 233.06,-61 807,-380.41l2378.99 -1182.78c52.95,-34.05 117.82,-91.93 170.33,-126.62l1423.36 -654.17c1154.11,-285.36 534.63,74 1589.18,-488.99l25120.73 -10794.24c1192.34,-385.24 997.74,-694.44 2477.16,-1084.62 1671.24,-440.77 3270.19,-1391.46 4742.95,-2083.86 746.32,-350.87 1104.28,-253.46 1894.09,-480.29 1606.69,-461.39 -268.5,-241.22 3394.67,-1354.62l6560.57 -2640.83c874.34,-456.88 190.74,-345.4 1340.98,-736.54l8446.71 -3129.61c1045.74,-630 2383.94,-588.33 3582.51,-1166.35l10072.09 -3878.39c726.66,-430.88 -289.66,-17.94 766.61,-421.11l7781.7 -2606.79c1179.03,-280.53 770.59,-19.01 1802.37,-572.22 1391.78,-745.99 2803.54,-718.61 4228.3,-1411.01l2652.43 -909.78c711.95,-341.1 559.12,-430.88 1406.07,-671.35l10576.54 -3374.26c619.05,-296.96 1149.49,-405.65 1856.61,-517.77 2016.2,-320.48 1905.04,-666.84 3366.64,-1085.8l7272.63 -1928.46c930.08,-377.19 530.01,-373 1780.89,-593.49 1958.31,-345.72 3443.32,-1218.98 5370.81,-1456.33 2003.85,-247.13 2004.6,-687.78 3704.84,-1044.35 1430.02,-299.75 2497.56,-313.07 3908.57,-840.72 1405.1,-525.5 2653.83,-371.6 3914.48,-834.7 1813.22,-666.09 876.81,-804.53 3587.45,-864.45 2309.29,-50.91 5031.1,-1033.5 7810.81,-1390.82 885.18,-113.52 1286.64,-74.64 2099.22,-275.16 822.14,-202.98 888.08,-339.7 1831.47,-543.01 3402.61,-733.43 8868.47,-625.49 12576.85,-1081.19 2051.54,-252.07 1927.81,-281.17 4097.81,107.61 4940.35,885.18 6207.66,1415.63 8551.97,5102.63 2208.98,3474.46 3573.38,7437.38 5020.15,11304.6 389.54,1040.48 438.62,620.12 835.46,1539.35 1092.03,2528.39 1901.18,5929.6 3277.92,8297.75l634.84 1739.86c432.28,1735.78 889.37,1554.81 1352.9,3099.43l2581.55 6619.97c266.89,688.11 582.75,993.87 819.99,1554.39 672.75,1590.58 1062.61,3312.61 1895.59,4931.22l1015.67 2546.21c300.39,732.68 2.36,10.53 422.72,764.57 373,670.28 32.65,-99.56 308.56,582l4233.56 10903.9c413.59,1221.77 400.71,540.22 811.18,1563.51l1256.14 3196.19c116.74,244.01 246.37,593.16 364.94,822.46l4522.68 9428.02c1215.86,2873.67 2789.26,5487.55 4204.46,8261.99 444.95,871.86 559.87,618.73 943.39,1727.62l1091.71 2173.54c207.17,366.34 177.42,416.17 383.52,803.88l2095.35 3840.91c137.47,287.08 225.43,630.65 325.42,862.09l1186.65 2374.81c340.45,787.34 72.6,205.02 411.55,775.74l10581.81 21771.71c209.21,856.83 152.08,1053.91 528.3,1846.19 518.84,1094.07 1839.42,4130.46 1864.66,5258.9 -7179.73,0 -3527.84,256.68 -7370.47,-940.17 -1856.61,-578.45 -2665.11,-203.41 -5356.74,-2064.21l-6252.12 -5323.44c-4518.6,-4018.33 -4905.66,-3431.83 -9492.89,-553.96 -556.33,348.83 -509.72,242.94 -1106.75,673.82 -687.14,496.08 -239.5,346.36 -1046.82,734.5 -2708.92,1301.68 -3752.2,2506.58 -5702.46,3499.06l-17790.21 10110.54c-698.74,453.33 -490.17,379.33 -1012.45,768.44 -1054.23,784.23 -93.65,203.41 -1438.5,639.13 -1146.38,371.6 -485.12,92.9 -1190.84,590.37l-15467.39 8574.73c-623.67,398.56 -285.36,241.54 -1105.35,675.86 -352.7,186.55 -254.11,100.63 -584.36,306.09 -691.33,430.46 -255.61,230.26 -683.59,503.38l-21629.08 11614.88c-834.06,423.9 -530.12,331.33 -1104.28,676.61l-8689.76 4370.28c-778.96,350.55 -541.29,294.49 -1150.57,630.65l-3705.91 1933.4c-578.13,298.35 -407.69,305.76 -1129.94,651.05 -688.11,329.18 -727.74,217.7 -1428.51,649.23 -690.68,425.3 -315.54,361.83 -1075.28,705.72 -498.44,225.43 -897.75,243.69 -1353.55,427.02 -847.27,340.78 -345.29,202.98 -1110.29,671.03l-983.35 500.59c-59.18,31.25 -136.72,69.38 -195.25,101.71l-2570.06 1288.36c-1529.9,921.27 -3236.47,1469.97 -4874.73,2545.89 -1110.29,728.81 -1997.19,800.98 -3156.24,1592.94 -1203.51,822.78 -3120.8,1346.25 -4471.56,2058.19l-2374.05 1187.83c-2578.86,1422.93 -5377.47,2388.77 -7630.27,3648.77l-7476.04 3506.79c-1265.59,472.88 -1370.41,770.91 -2700.12,1158.62 -1966.69,573.19 -3150.23,1836.31 -5056.99,2363.21l-16134.12 6127.33 -6943.13 1070.66c-25.24,0 -4966.99,-1223.81 -5200.8,-1329.38l-6985.23 -2809.88c-941.57,-427.98 -1483.93,-262.91 -2511.53,-753.3l-18336.01 -7487.21c-1298.56,-665.77 -2807.41,-1041.98 -4086.64,-1849.63 -399.31,-252.49 -760.81,-395.12 -1169.57,-611.42 0,-4531.91 706.79,-4617.08 1243.14,-7661.52 478.25,-2713.76 240.9,-6140.64 240.9,-8960.3 0,-1383.73 -1257.21,-3342.36 -2146.26,-4383.92l-697.99 -785.95c-283.21,-259.8 -168.29,-119.21 -496.08,-394.48 -2753.39,-2310.58 -2098.15,-1347.53 -4714.49,-2706.02 -601.97,-312.42 -487.7,-370.53 -1226.28,-554.61l-5863.02 -1557.61c-1301.03,-218.45 -1802.37,-559.23 -3075.58,-783.15 -2486.29,-436.9 -4165.58,-254.21 -6533.29,-887.01 -2698.08,-721.08 -7038.18,-476.74 -9734.75,-1247.65 -3483.38,-995.7 -6840.46,-418.96 -10290.75,-988.29 -1149.6,-189.67 -1449.67,-396.52 -2952.61,-609.27 -1259.25,-178.5 -2038.54,-167.97 -3618.59,-240.14 -2151.09,-98.16 -4149.36,-688.96 -6394.43,-1026.2 -1998.69,-300.07 -5010.05,-298.68 -6961.39,-458.92l-6483.89 -936.73c-1099.77,-115.35 -1861.22,-171.73 -3320.24,-241.54 -1522.27,-72.92 -1487.58,-449.04 -3115.97,-742.45 -2295.55,-413.7 -4631.04,-204.06 -6643.38,-777.25 -2929.74,-834.06 -7186.39,-477.17 -9723.15,-1259.25 -1243.89,-383.52 -1790.77,-414.35 -3228.84,-629.68 -2675.85,-400.71 -3573.38,-99.56 -6517.83,-902.69l-13206.1 -1635.04c-2926.3,-130.49 -5747.03,-1310.48 -9503.09,-1479.1 -2080.96,-93.22 -1664.47,96.77 -3412.82,-445.92 -2048.42,-635.59 -5797.83,-535.71 -9573.87,-1408.32 -686.06,-158.41 -2612.48,-401.35 -3380.17,-478.46 -1490.7,-150.04 -2029.52,60.25 -3268.47,-293.41 -1352.48,-386.74 -1542.89,-486.62 -3189.53,-668.99 -1691.1,-187.2 -5500.44,-152.08 -6864.19,-556.33 -2813.32,-834.06 -6598.49,-942.64 -9373.35,-1609.16 -2018.56,-484.8 -4605.81,-545.8 -6651.76,-768.44 -1527.11,-166.15 -1694.65,-389.86 -3206.4,-652.45 -2021.68,-350.87 -4636.31,-207.17 -6796.21,-624.31 -2400.69,-463.86 -3319.92,-990.43 -6314.52,-1106.1 -2370.19,-91.5 -4115.42,-691.33 -6480.78,-939.53l-6450.49 -970.03c-2458.58,-438.19 -4638.78,-219.09 -6551.55,-572.11 -2627.52,-485.55 -3152.37,-1051.44 -6349.64,-1070.98 -2376.52,-14.39 -3972.37,-718.39 -6335.57,-1084.73l-6546.93 -873.58c-3132.72,-648.58 -6685.8,-522.07 -9685.99,-1296.52 -2016.2,-520.24 -4663.05,-396.09 -6778.06,-642.25 -1840.5,-214.15 -3028.54,-976.69 -6265.76,-1154.75 -1575.87,-86.89 -2002.56,-301.79 -3280.72,-577.7 -2233.47,-482.44 -4221.96,-492.21 -6816.94,-603.69 -1488.55,-63.79 -1602.5,-393.08 -2847.68,-714.53 -751.69,-193.86 -2624.4,-444.52 -3379.85,-478.57 -2524.84,-113.52 -4236.35,-526.47 -6435.24,-985.06 -1812.04,-378.26 -4679.8,-222.64 -6845.29,-575.66 -738.26,-120.18 -1730.09,-526.15 -2857.46,-703.89 -2139.28,-337.66 -4586.58,-245.41 -6568.41,-852.32 -2126.61,-650.95 -4246.56,-684.67 -6689.35,-730.96 -1812.79,-34.37 -1497.57,-358.93 -3160.43,-698.31 -1839.1,-375.14 -4870.44,-349.91 -6708.25,-712.38 -3834.14,-756.2 -7126.03,-878.52 -9526.83,-1455.26 -3225.3,-774.78 -7599.01,-347.01 -10256.71,-1022.55 -1059.49,-269.68 -1426.47,-551.17 -2801.82,-760.06 -2223.7,-337.98 -4629.65,-411.55 -6472.29,-948.01 -2077.53,-604.76 -4303.26,-289.55 -6645.53,-775.1 -1063.57,-220.81 -2009.76,-598.75 -3140.02,-718.71 -2890.54,-306.73 -3889.35,-341.74 -6372.41,-1047.78 -1913.42,-544.08 -4517.85,-561.27 -6400.44,-1020.18 -2115.01,-516.05 -4599.58,-476.42 -6560.25,-860.37 -2391.99,-467.94 -3607.1,-960.58 -6449.95,-970.67 -2812.24,-9.88 -3578.96,-1085.37 -6225.81,-1194.81 -1936.19,-79.9 -5442.66,-151.43 -6873,-547.2 -2347.85,-649.98 -4173.95,-537.1 -6567.34,-852.96l-6719.09 -701.85c-3030.05,-251.31 -14272.57,-745.35 -17539.54,-569 -1344.1,72.6 -1622.48,306.09 -3253.33,308.56 -3452.45,4.51 -6346.53,58.21 -9383.56,708.08 -858.55,183.76 -2545.46,302.22 -3180.41,381.48 -2826.31,353.34 -3447.51,796.79 -5792.46,1034.57 -3882.26,393.3 -3570.59,962.94 -5478.42,1348.29l-4040.78 1005.47c-759.31,266.35 -540.97,132.1 -1485.76,294.81l-4992.44 1834.48c-1345.92,811.29 -5672.38,2040.37 -8178.22,3694.42l-9809.82 5625.34c-784.23,494.25 -1228,807.64 -1971.95,1292.87l-3787.96 3038.75c-743.95,618.4 -980.23,1198.25 -1731.49,1830.4 -47.36,39.95 -120.29,89.36 -168.94,127.91l-7140.53 5919.51c-48.33,38.56 -119.54,90.43 -168.62,128.23 -49.4,37.91 -122.76,86.67 -172.16,124.48l-1005.47 775.53c-3736.73,2659.41 -1841.14,2864.55 1758.12,7566.79l697.34 787.02c385.99,422.08 351.62,391.58 685.42,798.3l1669.73 1892.37c293.09,331.65 172.48,213.83 387.07,503.38l22984.67 25990.55c2761.12,3002.66 8894.46,9494.28 12040.18,11705.31 442.7,311.35 451.51,348.83 829.44,654.49l327.78 266.13c277.63,211.79 220.49,154.65 522.28,367.73 2102.76,1486.51 3426.24,1133.81 5717.6,352.7 933.19,-318.01 1670.48,-334.76 2690.24,-574.91l17154.73 -7481.31c851.46,-365.59 536.35,-329.5 1133.06,-647.83 1077.32,-575.66 1432.38,-305.76 2503.36,-761.78 1834.91,-781.43 5194.14,-2366.75 7599.12,-1885.82 3935.21,787.13 3432.04,3960.87 3432.04,6981.04 0,1486.08 -376.43,2306.39 -1043.92,3407.88 -1433.56,2365.68 -957.78,1538.06 -3002.34,3230.99l-4455.12 2668.86c-1105.03,475.78 -1039.09,436.79 -2011.26,956.71l-12284.08 5525.03c-831.91,437.87 -857.47,646.11 -1878.09,1089.99l-9921.2 5216.91c-801.09,390.82 -1230.58,659.43 -1910.63,1057.34 -56.49,32.86 -132.85,74.64 -188.59,108.26l-717.32 470.19c-54.34,33.62 -125.87,82.38 -181.61,115.35 -55.74,32.86 -129.31,78.08 -186.87,109.98l-2375.45 1482.64c-80.66,41.35 -335.84,135.97 -420.04,173.88l-4954.64 2762.52c-334.76,209.96 -508,381.37 -508.64,381.8l-1661.35 713.02c-67.02,27.06 -146.28,57.57 -210.39,86.56 -62.4,28.78 -137.04,69.16 -196.97,99.99 -1855.64,957.35 -3870.77,2268.16 -5882.03,3022.64 -2194.91,823.54 -4132.5,2053.68 -6370.26,2831.25l-3079.02 1373.2c-758.34,307.38 -350.23,191.38 -926.32,557.72l-3070.97 1381.26c-408.44,196 -580.92,230.69 -1027.92,456.12l-14936.94 8808.86c-2192.12,1827.18 -4365.02,3778.19 -6177.48,5992l-5072.78 8284.11c-223.6,435.72 -241.54,307.05 -493.61,990.65l-2284.38 6916.92c-666.41,1627.63 -308.45,3456.64 -844.8,5091.68 -518.84,1582.2 -857.9,2887.74 -862.41,5073.53 -7.73,3646.73 -890.44,7105.09 -890.44,11279.36 0,1386.84 1744.05,1501.55 2680.14,1225.64l10616.39 -5144.73c867.35,-412.2 475.35,-424.87 1509.92,-864.45l2266.44 -998.49c318.01,-151.11 526.58,-205.35 850.17,-336.91l34931.19 -17012.32c789.92,-380.62 948.33,-220.81 1714.3,-660.4 681.23,-390.61 -8.38,-27.71 516.8,-373.75 531.09,-349.48 327.78,-223.71 760.06,-427.34 456.77,-215.23 309.52,-79.58 822.03,-364.94l11397.18 -5521.6c587.9,-355.49 75.72,-76.79 795.5,-391.9l10015.92 -4825.33c1573.72,-764.25 3832.1,-2161.62 5357.06,-2656.62l5477.35 -2536.76c1003,-423.9 572.22,-502.41 1464.71,-910.1 565.56,-258.4 1020.18,-270.32 1558.68,-518.84 5248.05,-2425.28 4004.26,-3431.83 9153.83,388.46l3784.85 3338.82c1721.28,1685.63 3853.8,5957.31 3853.8,8316.01 0,1067.44 -2683.58,1451.39 -3682.39,1957.24 -1063.25,538.82 -898.5,277.3 -2069.04,602.29 -1178.38,326.71 -1234.77,626.78 -2041.12,926.96l-9765.9 4481.33c-379.66,249.27 -465.9,350.23 -867.35,616.68l-1048.54 732.68c-49.08,37.48 -115.35,94.62 -164.75,132.21l-4948.73 4845.95c-1453.54,2407.78 -2125.86,3878.39 -2125.86,6778.7 0,1047.57 1232.62,3947.88 1882.92,4646.83l1044.03 1033.93c45.86,40.27 110.41,100.2 157.34,139.51 1870.35,1564.27 6426.75,1323.37 8473.03,394.37 874.01,-396.52 188.59,-242.61 1439.15,-638.38l4469.84 -2060.34c557.4,-285.68 930.08,-331.97 1477.27,-600.58l10875.54 -6339.76c615.93,-312.32 909.35,-490.81 1548.16,-826.33 112.12,-58.85 459.24,-236.28 581.57,-309.2l6557.89 -3237.11c601.22,-256.36 1079.36,-273.87 1600.03,-477.5 1021.9,-400.06 494.57,-334.87 1307.9,-769.94 2401.87,-1284.49 5187.8,-1965.94 7512.88,-3469.2l2889.78 -1265.91c1001.93,-543.76 281.17,-200.94 1487.8,-590.05 1704.1,-549.35 2754.14,-1521.2 4357.61,-2172.57 507.35,-206.1 1017.39,-256.25 1583.28,-494.25l14539.67 -6831.33c63.15,-29.75 141.98,-61.65 207.49,-89.36l2823.52 -1331.85c759.42,-250.35 953.6,-168.62 1781.64,-592.84l2742.97 -1412.83c607.88,-333.69 741.05,-352.59 1432.06,-645.36 784.55,-332.72 930.4,-539.14 1539.03,-835.46l5115.95 -2304.67c839.54,-452.9 1491.99,-379.33 2338.61,-926.53 919.55,-594.56 40.38,-308.56 1324.87,-753.08 929,-321.45 693.37,-112.45 1532.37,-545.05l4474.03 -2056.15c1848.55,-814.08 725.27,-1147.77 3304.45,-1147.77 -438.19,1880.45 -2009.76,3441.92 -3270.08,4743.92 -332.4,343.57 -227.26,268.93 -556,631.4l-3564.68 3262.46c-443.13,383.52 -798.62,692.08 -1281.05,1093.43 -3800.21,3159.36 -8079.95,5598.39 -12127.06,8353.49 -858.55,584.79 -317.26,462.46 -1431.74,943.07l-35644.65 18672.92c-1107.07,438.3 -1098.26,807.75 -2376.2,1185.68l-14314.99 6462.52c-1214.36,614.54 215.66,188.91 -1262.37,815.37 -658.03,279.13 -1063.68,211.79 -1785.51,588.98 -1542.46,805.28 -3923.28,1692.61 -5369.41,2644.81 -1409.61,928.25 -5254.07,2267.08 -7291.85,3393.49l-13776.17 7001.34c-948.33,412.3 -736.97,123.72 -1663.82,710.66l-6060.09 3141.1c-1666.62,848.02 -2699.37,1682.08 -4463.18,2363.96l-5375.64 2638.36c-1071.41,467.4 -1010.73,810.86 -2329.27,1232.62l-3780.87 1858.43c-620.87,371.6 38.88,14.39 -765.65,421.76l-4272.12 2258.06c-59.28,31.15 -134.25,71.85 -195.68,101.28l-3183.2 1565.98c-674.9,382.13 -934.59,681.23 -1451.71,922.45 -608.63,283.53 -1081.51,265.38 -1758.87,615.93l-14731.81 7232.68c-1160.77,492.53 -824.18,659.11 -2168.6,1096.22 -1443.66,469.44 -1175.48,611.1 -2434.09,1128.12 -1819.12,747.5 -3556.52,2034.14 -5480.46,2533.65 -1572.43,408.12 -3296.83,1438.39 -4739.52,2087.3 -1295.66,583.39 -1581.34,287.51 -2996.32,1159.37l-5533.09 1887.11c-675.54,209.64 -915.68,427.34 -1678.22,696.27l-5222.81 1604.22c-5027.99,526.58 -5403.14,1495.96 -12751.48,1495.96 -3342.04,0 -10546.69,-631.08 -13213.51,-1924.37 -833.31,-404.14 -560.19,-424.87 -1626.34,-748.46 -470.41,-142.63 -480.29,-94.62 -924.81,-262.59l-18669.06 -10418.99c-250.02,-156.37 -418.64,-238.43 -742.56,-444.63 -74.64,-47.26 -290.3,-181.5 -360.75,-233.06l-33116.58 -24466.24c-50.91,-36.84 -124.15,-85.17 -175.38,-121.68l-10585.24 -7817.46c-45.54,-40.6 -106.86,-103.75 -153.15,-143.7 -46.61,-39.95 -109.01,-101.28 -156.7,-139.94l-1648.79 -1022.98c-1497.25,-1007.83 -2851.23,-2422.06 -4404.97,-3312.18l-14025.77 -10016.24c-50.16,-37.16 -120.18,-89.79 -169.69,-127.59l-5077.72 -3529.99c-737.94,-489.74 -681.12,-541.61 -1636.44,-1034.9l-1248.41 -829.44c-48.01,-38.56 -112.88,-97.09 -161.64,-135.32 -1161.09,-910.1 -2194.27,-1210.17 -3238.19,-1807.52l-4732.75 -2984.51c-562.34,-317.9 -1023.4,-433.57 -1611.95,-762.75 -1887.21,-1054.98 -4765.08,-2694.96 -6828.86,-3262.89 -1259.68,-346.68 -936.73,83.13 -2112.97,-558.47 -1960.68,-1068.83 -3382.32,-841.69 -5719.21,-1701.31 -977.76,-359.36 -6035.18,-626.14 -7161.26,-558.8 -1234.98,73.68 -999.45,200.51 -2097.82,284.71 -6159.55,470.73 -2691.31,554.93 -6633.5,1083.55 -3462.33,464.5 -1915.89,560.3 -3876.03,1170.22 -807.64,251.42 -1235.41,126.62 -1980.65,393.72 -1007.94,360.75 -709.26,544.41 -1816.01,855.43 -3360.3,944.79 -3214.77,1506.7 -5342.78,2374.38 -1751.14,713.77 -3689.48,1306.62 -5396.69,2320.78 -636.34,377.61 -901.72,462.78 -1512.07,862.41l-4169.77 2063.56c-751.9,379.66 -367.41,160.13 -931.04,553.21 -816.55,569.32 -594.99,399.95 -1504.34,870.04l-6461.44 3630.19c-785.3,355.92 -1000.53,534.31 -1722.04,949.41l-909.02 575.34c-50.8,36.09 -116.74,92.9 -167.97,128.99l-4544.48 2579.19c-1903.97,1210.17 -3770.03,2012.98 -5551.99,3352.14l-2090.2 1768.65c-1109.22,1228.11 -2066.89,2259.14 -2776.91,3753.27 -1163.45,2448.8 -459.24,1227.03 -1165.6,3583.26 -277.3,925.13 -515.3,621.2 -760.71,1910.95 -532.59,2799.35 -329.93,6780.1 -329.93,10058.67 1895.91,502.73 2248.18,-181.61 3619.35,-832.99l2042.41 -925.89c1072.38,-588.55 8182.08,-4305.41 11586.09,-5629.42 1003,-390.29 488.77,-304.05 1317.14,-760.49l14604.22 -7360.59c56.49,-32.97 130.49,-76.79 189.99,-106.97l5334.08 -2680.14c839.97,-344.97 704.22,-252.71 1439.79,-637.63 1151.96,-603.37 3359.87,-1757.48 4389.83,-1843.4 0,1681.01 -1620.97,5048.29 -2646.85,6554.67 -322.52,473.63 -432.93,461.71 -777.14,1003.75l-4229.05 4081.7c-431.85,265.81 -236.92,105.9 -592.09,298.35l-1882.27 1086.13c-1575.44,854.68 -2688.84,1829.97 -4418.61,2408.1l-2379.32 1182.78c-1070.98,422.83 -1442.58,924.17 -2597.01,1261.4 -2506.69,732.03 -3447.29,1714.95 -5117.02,2303.6 -2958.84,1042.63 -6598.16,3141.85 -7889.64,3686.26l-1165.71 318.33c-1155.83,422.08 -660.83,463.53 -1252.27,825.68l-3752.52 1589.83c-1790.34,734.07 -3214.45,1916.96 -4930.79,2489.72 -2274.6,759.74 -6704.81,3048.31 -8871.37,4485.95 -392.22,260.55 -657.28,388.46 -1091.6,688.96 -1944.67,1346.89 -4666.16,3421.52 -5573.47,5705.89 -163.03,410.48 -123.4,477.17 -205.13,684.99 -409.08,1041.56 -648.15,572.87 -1123.18,1845.11 -1169.57,3132.4 -1091.39,4564.78 -1712.26,7786.21 -950.05,4929.51 -718.28,10494.81 -718.28,15606.57 0,1238.95 1035.22,1242.39 2193.52,1050.68 2422.17,-400.71 5029.39,-1215.43 6982.76,-2262.68l1546.76 -531.09c1253.24,-418.96 1071.73,-652.45 2462.44,-1099.77 1809.24,-581.24 3263.1,-1703.03 5054.95,-2365.25 3240.33,-1197.61 5718.89,-2762.19 8984.46,-4075.47l2396.5 -1165.28c775.21,-370.2 544.83,-433.35 1302.43,-775.85l3805.15 -1537.31c957.03,-285.36 667.16,-213.83 1424.75,-653.09 1236.05,-716.57 4261.16,-1498.32 5741.01,-1976.14 1323.69,-427.34 2269.56,-1448.6 3962.49,-1088.6 1657.17,352.38 3726.96,3165.69 5040.56,4465.33l8047.08 7684.18c294.17,325.31 277.3,334.76 405.97,484.48 1427.87,1664.9 3093.09,2901.06 4690.33,4511.19 1091.39,1100.09 2970.12,2521.73 3808.26,3612.36 1098.05,1429.59 1685.63,1574.79 2888.07,2751.35 113.2,110.73 452.9,411.55 466.22,424.44l20369.5 19700.95c142.63,135.32 725.69,896.35 935.98,1141.76l577.05 610.03c45.21,41.35 112.55,98.16 158.84,138.12l22594.81 21631.55c212.11,183.97 257.65,251.64 437.54,452.9l6140 6029.49c342.82,307.81 385.24,316.61 640.85,546.55l7542.52 7298.62c1338.94,1171.29 2681.97,3561.89 4748.97,3561.89 479.54,0 1125.33,-601.65 2078.17,-889.8l2251.4 -1013.85c66.27,-28.03 145.1,-56.81 214.91,-81.73l1865.73 -508.64c1399.84,-596.71 462.35,-539.89 2361.06,-903.76 1187.4,-227.9 1347.64,-181.93 2357.62,-610.67l2308.22 -660.18c1712.26,-331.33 2993.53,-938.45 4372,-1861.22 -577.7,-2479.2 -2834.37,-4429.13 -4255.9,-6429.55l-517.45 -670.28c-351.3,-410.8 -715.28,-809.79 -1097.4,-1277.08l-4577.77 -5217.33c-593.49,-870.79 -349.8,-586.83 -1089.24,-1285.14 -44.46,-42.1 -110.41,-100.31 -154.87,-141.98l-16915.98 -17218.53c-41.03,-45.21 -97.09,-113.2 -137.04,-159.49l-530.44 -656.64c-41.03,-45.54 -101.28,-109.33 -143.06,-154.22l-743.52 -740.41c-42.74,-43.07 -104.18,-106.54 -147.24,-149.71l-4121.01 -4189.74c-413.38,-408.33 -768.76,-792.93 -1195.46,-1178.92l-3698.93 -3721.7c-515.3,-509.39 -681.88,-684.99 -1189.12,-1185.26l-7244.28 -7300.02c-1126.72,-919.55 -372.35,-179.57 -1081.19,-1293.62 -1278.58,-2009.54 -3329.8,-3147.86 -4705.04,-5090.07l-4593.24 -5201.44c-43.82,-42.74 -107.61,-103.1 -151.43,-145.53l-1029.31 -1048.54c-39.63,-46.93 -94.3,-115.67 -132.53,-164.43l-4767.76 -5917.68c-1041.23,-1173.66 -1597.56,-2608.29 -2531.5,-3701.72l-1457.73 -2103.73c-808.71,-1591.97 -2072.91,-2978.93 -2730.3,-4690.33 -159.81,-416.17 -94.62,-395.12 -304.58,-882.82 -435.07,-1009.66 -883.79,-1391.35 -883.79,-2381.04 0,-1938.01 3898.05,-1452.14 5753.9,-1963.25 3050.78,-839.65 8789,-1858.43 12098.06,-453.98 1597.56,678.01 3674.66,1480.07 5126.05,2591.11l3917.7 2909.01c1396.29,1418.74 3203.82,2255.27 4644.36,3666.71l11714.44 8766.12c408.12,300.07 973.89,643.21 1446.45,928.25 689.61,415.85 908.06,433.35 1506.81,867.35l8407.08 5246.65c459.67,290.62 1009.34,552.57 1508.53,866.28l5927.89 3273.31c1234.34,814.41 1642.13,895.71 2986.23,1466.1 1019.43,432.28 520.56,363.98 1306.62,770.91 665.34,344.97 1199.97,339.06 1759.09,615.61l9750.97 4199.94c987.53,540.22 2556.74,535.6 3511.62,940.6 858.23,363.87 436.15,396.41 1704.85,669.53 1933.4,416.17 3310.47,1019.11 5496.68,1330.46 2042.84,290.62 2300.16,-31.25 4150.43,598.43 3205.64,1090.64 6686.55,536.03 10198.93,1080.11 489.09,75.72 1438.72,370.53 1929.85,444.85 1284.17,193.96 3295.43,195.68 4426.45,322.95 2496.38,280.1 6499.57,43.07 9158.02,43.07 -357.21,1337.12 -2153.99,2232.18 -3189.21,3044.12l-676.61 511.11c-48.65,37.48 -113.52,96.01 -163.03,133.5l-12826.02 7357.58c-1093.11,575.98 -1268.81,455.05 -2361.92,903.44 -940.92,385.99 -710.23,621.52 -1922.55,1045.74 -714.74,249.92 -410.48,45.54 -1103.52,379.98l-3226.69 1522.6c-2744.69,1479.42 -5000.6,3184.27 -6631.13,5835.63 -687.78,1118.35 -785.3,4007.38 -857.9,5395.29 -77.76,1482.32 198.8,1835.34 292.77,2975.06 179.89,2187.93 -819.67,6493.66 1940.48,7271.88l5252.24 -703.89c1113.41,-356.24 1131.66,-667.48 2357.94,-906.98 3101.57,-605.09 1393.18,-808.07 4799.77,-1433.78l9378.51 -3384.46c765.65,-286.11 1399.19,-296.64 2258.06,-710.34l5604.29 -2112.86c1428.94,-450.11 710.66,-639.78 2229.71,-1035.22 482.65,-125.55 636.23,-95.05 1187.3,-296.64 1079.79,-395.44 897.53,-679.41 2236.37,-1028.88 1610.88,-421.11 894.31,-86.67 2206.19,-762.21l4426.02 -1807.2c1109.54,-387.39 1169.15,-777.25 2227.13,-1037.69 1926.42,-474.27 3749.08,-1300.92 5533.09,-2184.07l415.42 -178.07c317.36,-111.16 388.78,-88.39 719.04,-171.84 1583.92,-399.95 1169.25,-605.73 2231.11,-1033.82l11057.48 -4377.26c787.34,-372.67 74.64,-148.32 960.9,-523.03l4473.38 -1759.95c764.9,-347.76 399.95,-320.05 1094.07,-687.03 1094.83,-578.45 2142.39,-610.78 3243.23,-1208.88l7763.01 -3218.96c2412.72,-1300.28 6829.61,-2710.21 8818.1,-3945.3 1095.15,-680.48 1151.21,-451.93 2400.37,-864.88l5305.51 -2411.64c918.91,-398.24 145.53,-126.52 936.73,-547.2l3395.31 -1353.98c480.29,-250.56 499.62,-210.61 1047.89,-436.04l21515.13 -9650.98c1089.24,-408.76 1252.59,-140.26 2484.89,-780.36 543.76,-282.57 94.94,-129.42 1005.04,-478.89l21115.07 -8567c1107.82,-469.12 997.09,-250.99 2091.27,-877.13 1102.88,-631.08 1334.54,-405.97 2378.57,-886.26 1152.39,-530.44 271.08,-509.39 2004.6,-963.69l7033.24 -2761.55c1042.95,-450.43 654.49,-568.57 1996.12,-972.07 588.33,-176.78 573.3,-106.65 1136.6,-347.76 676.29,-289.66 390.5,-288.9 1164.63,-616.36 854.04,-361.08 1338.08,-325.31 2200.5,-767.37 382.13,-195.68 354.52,-252.07 970.13,-514.33l3246.24 -1502.51c1202.87,-448.82 1283.85,-661.9 2271.7,-993.23 573.62,-192.46 583.71,-112.23 1145.41,-339.06l1928.46 -1039.41c782.51,-313.71 497.15,-115.67 1243.89,-537.1 1324.12,-747.07 547.95,-391.58 2127.57,-840.61 1464.39,-416.82 3021.99,-1483.72 4405.72,-2124.57 63.37,-29.43 142.3,-61.32 208.57,-88.28 232.73,-93.65 408.01,-117.82 682.52,-207.6 1006.87,-329.5 538.82,-152.83 1224.24,-556.65 760.71,-448.39 39.31,-169.69 980.55,-503.81l17483.16 -7449.73c479.21,-124.8 617.33,-74.32 1163.88,-320.05 1188.48,-533.88 320.05,-609.6 2248.93,-1016.32 2436.13,-513.58 4276.63,-1948.11 6732.84,-2468.35l7172.32 -2326.05c2014.38,-547.31 3337.85,-788.09 4721.26,167.54l11099.79 8201.31c54.02,35.12 133.28,74.32 187.3,109.44 53.91,35.01 132.85,75.29 185.8,111.05l8237.72 6603.1c1541.18,1301.03 5885.79,3978.38 7827.67,4342.25 3714.72,695.84 7555.2,379.98 11306,-11.6 1809.99,-188.59 3251.93,-792.6 5023.69,-1209.53 1211.68,-284.93 1299.31,-639.35 2294.58,-970.35 1027.16,-341.42 1537.63,-73.25 2591.11,-377.19 1260.65,-363.55 790.46,-598.75 2275.57,-989.36l6773.76 -2427.32c1789.7,-424.55 2880.98,-1075.92 4590.77,-1642.45l25100.75 -9627.46c1466.86,-357.32 922.34,-505.53 2018.67,-949.41l8093.69 -2888.71c1146.05,-385.67 698.31,-606.8 1964.22,-1003.75l3550.29 -1198.89c1420.57,-376.54 1224.24,-306.09 2398.33,-867.03 896.35,-427.98 1402.2,-432.17 2159.15,-808.71 2012.33,-1001.93 4834.78,-1585.64 6928.09,-2570.06l15808.38 -5859.47c1469.97,-510.47 669.63,-668.56 3438.81,-1310.48l5477.35 -2240.13c1638.91,-432.28 1087.52,-306.41 2349.89,-914.72l4858.94 -1671.13c972.93,-388.78 942.43,-635.26 2006.75,-961.33 1257.53,-385.67 1405.1,-105.14 2516.36,-748.79 597.46,-346.04 153.26,-246.16 953.6,-530.44 311.99,-110.84 829.12,-178.07 1202.87,-281.49l8968.35 -3498.09c1438.07,-376.43 1214.36,-305.01 2394.78,-870.04l4556.08 -1677.25c1167.75,-340.67 1145.3,-534.2 2035.75,-932.44 816.12,-365.69 1687.67,-311.35 2547.61,-717.64 1200.72,-566.85 233.16,-433.35 2068.07,-899.9l1681.01 -693.48c1455.58,-805.28 3522.26,-1297.49 5265.23,-1858.75 1089.99,-350.98 898.18,-593.16 1972.7,-995.27l6907.69 -2590.46c1009.01,-270.54 1131.34,-568.57 2020.07,-948.23 912.89,-389.86 1617.54,-365.37 2492.52,-772.31 589.41,-274.51 334.12,-240.57 994.94,-489.42l16758.54 -6689.99c985.49,-391.68 736.86,-649.98 2210.38,-1054.55 2327.12,-639.13 4075.79,-1903.32 5415.7,-2301.88 2864.12,-851.89 7959.77,-3499.06 8749.26,-3716.76l2779.7 -1079.14c159.17,-65.19 490.81,-154.22 679.08,-211.68 1463.63,-447.32 1262.37,-571.47 2225.74,-1039.09 816.12,-396.19 1200.4,-364.62 2124.89,-843.19l13227.79 -5768.72c1243.57,-362.47 1135.96,-478.89 2272.45,-992.8l6435.13 -2766.06c1051.01,-411.23 46.61,7.09 943.39,-540.54 730.64,-445.92 329.61,-209.96 1207.38,-573.94 951.45,-394.05 389.86,-150.04 986.89,-497.04l13915.36 -6565.19c63.47,-29.53 142.3,-61.75 208.57,-88.39 232.41,-93.65 408.44,-118.14 682.63,-207.92l2206.51 -1058.31c1165.6,-450.86 2018.89,-1155.51 3335.28,-1413.59 2065.93,-405.54 3057.76,-1260.97 5269.21,-1260.97 5201.44,0 13944.36,-447.32 18780.54,215.55 1318.86,180.97 2732.44,85.27 4078.58,77.11 3677.56,-21.69 7534.9,598.1 11868.77,597.78 1387.92,-0.32 2775.83,5.26 4163.43,-8.05 1843.29,-17.94 2448.7,-205.13 3257.2,898.5 -1006.54,83.77 -1364.18,444.85 -2096.11,872.29 -56.49,32.54 -128.66,78.83 -187.2,109.33l-2082.79 885.5c-848.02,515.09 65.51,113.95 -942.75,541.72l-8816.17 3946.7c-50.16,13.32 -699.81,170.01 -715.17,175.28l-1563.62 810.97c-658.03,262.48 -810.11,175.28 -1405.75,375.04l-4202.74 2030.59c-1079.04,451.83 -1426.15,181.5 -2502.07,763.18 -2021.68,1093.43 -7617.92,2878.51 -9056.31,3706.98 -2118.55,1219.94 -4535.03,1599.6 -6748.2,2749.84l-11626.48 4401.85c-1180.42,492.85 -674.47,645.79 -2250.65,1014.17 -264.74,62.08 -998.81,188.27 -1218.33,266.13 -794.75,281.17 -384.49,219.42 -962.94,520.89 -59.28,30.93 -131.89,74.75 -193.21,103.43l-4553.93 1679.29c-1515.18,368.81 -997.09,612.07 -2237.01,1028.24l-4648.34 1584.99c-1040.48,342.5 -1246.9,602.94 -2340.44,924.38l-2239.81 1025.12c-1699.91,803.13 -5003.72,1460.84 -6389.92,2218.11 -269.25,147.24 152.94,-0.75 -587.9,302.11 -2344.95,959.61 -2136.7,1047.89 -4604.41,1629.14 -1592.62,375.14 -3915.23,1805.81 -5698.27,2315.52l-2611.41 950.48c-1979.69,756.2 -3745.54,1151.32 -5639.73,2077.85 -2093.64,1024.37 -4786.34,1391.03 -6889.43,2608.94 -1389.64,804.63 -1045.74,275.26 -2551.8,713.13l-3392.52 1356.34c-642.68,298.35 -460.31,334.44 -919.55,564.81 -752.01,377.51 -1669.84,440.98 -3458.14,1291.15 -504.13,239.39 -1036.61,315.11 -1393.18,387.39 -2251.4,457.52 -4381.13,1846.08 -6969.76,2528.71l-7016.7 2481.35c-1306.29,362.47 -1159.05,646.11 -2265.04,999.78l-2340.12 925.24c-1171.62,680.8 -5271.89,1656.74 -7010.47,2487.58l-4814.05 1715.81c-1157.22,220.81 -1220.37,457.84 -2119.52,848.67 -987.96,429.81 -1425.51,237.67 -2441.82,823.54 -586.18,337.55 -154.22,250.67 -950.7,533.56l-2533.97 730.96c-1014.6,536.35 -2309.61,652.77 -3487.57,1261.72 -871.11,450.11 31.25,119.21 -979.48,504.13 -472.56,180.22 -780.68,194.93 -1380.18,400.71l-9287.43 3475.97c-1554.06,278.27 -2075.06,714.74 -3553.08,1196.1l-5744.88 2269.34c-1047.89,444.09 -1563.51,302.87 -3570.59,1178.6 -613.46,267.42 -722.47,216.62 -1364.07,416.82l-13987.21 5008.98c-1078.39,395.87 -1072.06,801.41 -2188.68,1076.25 -1678.54,413.7 -994.51,50.91 -2484.46,780.79 -1286.96,630.32 -1008.26,259.05 -2339.04,629.25 -1852.1,515.41 -4056.14,1988.17 -5729.74,2284.38l-1892.05 482.33c-2836.94,1387.92 -7626.08,2748.55 -10970.59,4167.3l-4924.46 1605.61c-1379.22,327.14 -1132.74,547.95 -2283.73,981.3l-4693.12 1540.1c-1697.12,350.23 -3356.75,1102.88 -4734.15,1795.93l-11546.89 4184.48c-1587.36,320.8 -1156.47,80.33 -2466.95,797.87 -1270.1,695.19 -7325.58,2453.31 -9492.89,3270.51 -1302.64,490.81 -901.61,649.33 -2275.89,989.36l-2403.48 861.34c-887.01,363.87 -1572.75,314.46 -2362.56,605.52l-3420.55 1328.63c-2011.9,1070.34 -1873.15,549.02 -3824.05,1221.77 -1167.1,402.1 -613.89,546.88 -2045.31,922.99l-11894.97 4133.36c-1524.96,735.47 -481.68,432.93 -2444.51,820.31 -1417.77,280.1 -1141.54,578.77 -2294.58,970.35 -792.93,269.25 -1579.95,255.93 -2399.62,568.68 -1262.47,481.68 -631.4,574.58 -2328.52,936.73 -2601.31,554.61 -5883.32,2149.38 -7075.34,2422.81l-2422.06 843.08c-1117.7,567.28 -1572,352.7 -2628.59,636.34 -1303.18,349.48 -943.82,558.15 -2296.62,968.31 -1503.69,456.12 -1720.64,926.85 -3273.74,1178.6 -2660.49,431.96 -2058.84,777.57 -3778.83,1266.99l-7249.54 2248.93c-1069.26,435.72 -1419.38,218.02 -2499.93,765l-4571.12 1662c-930.4,365.37 -1738.15,280.53 -2680.46,584.47l-4701.6 1828.57c-920.95,442.38 -1272.89,396.09 -2411.54,556.33 -1714.3,241.54 -1062.28,451.61 -2339.04,926.21 -1863.37,692.4 -4696.34,1273.97 -7215.6,2282.66 -951.02,380.73 -1631.5,335.41 -2584.34,680.37 -1834.27,664.37 -3937.35,1650.19 -5964.4,2050.25 -2620.53,517.02 -1968.41,800.01 -3563.18,1185.58 -1793.89,434 -3504,1268.06 -5063.75,1466.53 -1455.58,184.73 -1187.4,118.14 -2310.26,657.6 -2265.04,1088.17 -5113.48,1326.27 -7335.78,2459.65 -1331.85,679.41 -754.37,301.47 -2387.69,580.17 -1391.78,238.1 -1386.2,482.44 -2416.91,848.02l-4997.38 1532.8c-1834.91,294.06 -1663.5,681.45 -3318.63,1133.7l-9982.2 2781.1c-1850.38,578.77 -1024.37,600.58 -3817.82,1228.11 -1219.62,273.76 -1657.49,654.81 -2399.62,865.21 -1044.35,295.88 -1506.49,168.94 -2504.87,463.43l-4770.98 1759.2c-1210.82,643.64 -3059.47,600.15 -4916.4,1316.82 -2546.97,983.35 -9913.25,2656.62 -12309.75,3718.47 -630,279.02 -233.49,156.7 -1138.64,345.29l-7376.81 2121.67c-1371.06,500.37 -2784.64,553.21 -3935.53,1110.29 -1276.87,618.4 -1072.81,379.33 -2648.24,617.01 -170.44,25.67 -853.28,167.65 -1191.59,292.45l-6016.92 1996.87c-1491.02,212.11 -1323.05,143.06 -2555.02,710.23l-7508.91 1989.14c-1170.97,280.53 -1245.29,574.26 -2405.63,859.62 -904.19,222.32 -1629.46,183.01 -2579.51,388.46 -936.73,202.23 -1340.34,713.77 -2293.18,971.75 -1018.79,275.91 -1720.96,158.84 -2774.44,490.49l-4963.44 1270.1c-1120.39,344.97 -1170.54,535.71 -2511.1,753.73 -1233.69,200.94 -1492.42,209 -2542.03,723.22 -910.1,445.92 21.37,185.16 -1065.72,417.89 -380.41,81.73 -1145.73,138.12 -1572.75,208.68 -1818.37,301.15 -3250.86,997.74 -5003.07,1230.15 -1950.9,259.05 -1963.9,622.59 -3759.5,989.68 -590.37,120.61 -1011.38,146.81 -1547.83,232.73 -2411.86,386.74 -2013.62,1154.75 -4991.8,1241.75 -2131.12,62.08 -7983.29,2045.95 -10400.84,2362.13 -940.6,123.4 -1886.03,202.34 -2832.65,432.6 -1309.41,318.76 -1151.64,627.96 -2511.85,753.08l-5247.08 986.14c-1810.64,586.51 -3855.62,335.51 -5667.34,862.41l-5404.42 829.12c-2346.45,112.23 -3370.82,608.2 -5609.88,920.3 -5217.33,726.34 -2718.38,108.69 -8201.42,1296.74 -1181.71,255.93 -1874.54,105.57 -3101.15,163.68l-11159.18 1604.22c-1120.39,245.84 -1197.82,596.71 -2228.21,739.76 -988.61,137.04 -2083.11,-28.78 -3155.92,109.33l-5461.56 1068.3c-1938.66,269.89 -3809.01,164.32 -5782.36,451.18 -2049.49,297.6 -3482.3,912.46 -5477.67,1052.08 -2607.65,181.93 -3265.68,654.49 -5336.87,896.03 -6008.44,701.1 -3587.45,672.75 -7828.63,1669.73 -2190.4,515.09 -6473.04,2910.83 -8937.53,3825.87 -1153.79,428.41 -935.34,735.79 -2291.03,973.89 -1179.35,207.17 -4376.94,547.2 -4376.94,2153.24l9349.51 13802.38c347.44,459.35 387.39,662.65 699.06,1081.94 7706.63,10378.71 14681.65,5995.55 16955.18,5886.11 1365.04,-65.84 2240.88,-206.85 3271.91,-586.83 1641.38,-604.76 4333.01,-1187.08 6530.07,-1187.08l5844.44 11667.5c280.85,464.5 87.64,67.66 306.73,584.04l1404.78 3047.55c241.54,607.23 241.86,675.86 603.05,1177.95l262.16 331.22c39.95,46.29 96.12,113.95 138.12,158.52 328.86,348.51 -178.39,3.11 462.14,428.74 2020.71,1342.7 4811.58,-213.51 6830.57,-653.09 730.21,-159.17 1366.54,-123.08 2137.45,-237.03 1875.51,-277.63 1989.14,-718.61 3397.03,-1055.52 626.78,-150.14 1136.93,-171.52 1753.18,-324.34l3408.31 -1044.03c1648.47,-368.81 588.33,-196.65 1626.02,-748.46l8362.51 -2916.74c1268.81,-289.98 713.77,-112.23 1691.96,-682.63 1392.43,-811.94 2019.32,-361.08 3463.62,-988.61 645.47,-280.1 671.03,-431.53 1407.25,-670.6l3247.64 -1204.59c3145.72,-694.87 1929.96,-633.87 3611.72,-1137.57 475.99,-142.41 1635.69,-273.55 2036.82,-337.66 1868.85,-298.35 1702.38,-707.76 3339.14,-1113.08l6989.74 -1914.82c1091.71,-502.73 2502.07,-570.07 3735.44,-1013.85 674.47,-242.94 775.85,-404.25 1456.97,-620.55 652.45,-207.17 1412.08,-280.74 1974.42,-399.95 2141.32,-453.65 4455.12,-1831.8 6612.55,-2292.43l8656.04 -2623.01c1744.05,-658.68 1160.02,-821.07 3317.45,-1134.78 111.16,-16.11 781.76,-144.77 978.08,-209 1270.53,-416.06 1164.63,-691.01 2581.66,-980.23 1315.32,-268.5 1985.27,-815.7 3312.94,-1139.29 3265.9,-796.9 10094.75,-3477.69 12204.18,-3824.48 1400.59,-230.26 1895.27,-871.11 3294.68,-1157.22l5101.56 -1428.62c1573.07,-292.02 2012.66,-764.9 3600.12,-1149.17 1725.47,-417.46 879.17,-622.91 2283.62,-981.2l2808.05 -753.73c1524.31,-767.47 2798.28,-734.82 4925.21,-1604.97l5512.14 -1611.63c1458.05,-279.67 1733.53,-880.56 3293.28,-1158.94l8694.91 -2584.13c1498.75,-362.79 558.15,-252.71 1612.7,-761.78 1194.38,-576.73 2256.56,-310.6 3548.14,-904.51 680.05,-312.64 392.65,-384.92 1452.36,-625.06l3436.02 -1016.32c908.7,-362.15 965.52,-155.94 1943.28,-431.21 752.33,-212.11 1104.92,-601.22 1573.29,-800.98 1080.54,-461.39 2596.37,-302.22 3631.7,-821.07 1829.65,-917.51 1630.85,-440.34 3399.82,-1052.08 1149.49,-397.59 457.2,-386.74 1648.79,-726.02l10518.98 -3134.87c695.19,-317.26 380.3,-362.9 1454.18,-623.34 880.24,-213.51 1284.17,-137.36 2004.17,-370.53 1899.14,-615.29 968.63,-564.81 3387.26,-1065.08 1570.28,-324.67 1899.78,-978.83 3511.41,-1237.56 2038.22,-327.03 5635.12,-1825.35 8473.67,-2508.63 1114.48,-268.18 796.15,-319.73 1639.34,-735.15 1321.65,-651.37 2328.52,-290.62 3806.11,-943.07l4779.47 -1750.82c1417.99,-324.99 2145.08,-318.65 3456.31,-995.59l866.6 -320.8c7.73,-1.72 950.37,-150.36 1024.69,-162.6 2202.65,-371.71 1635.04,-826.01 3555.55,-1193.74l17345.04 -5213.04c914.93,-422.83 366.34,-435.07 1327.88,-749.86 382.56,-125.23 1708.4,-283.64 2038.65,-335.84 2047.67,-323.59 1366.22,-695.19 3332.16,-1120.49 1192.02,-257.65 859.3,-89.79 1859.18,-515.3 910.42,-387.39 579.42,-356.89 1753.83,-620.55l10251.88 -3105.01c1113.41,-537.42 2523.77,-556 3709.13,-1039.84 614.21,-250.67 787.02,-434.32 1440.11,-637.74l3385.86 -1066.79c552.46,-244.65 98.48,-105.47 890.44,-296.53 323.27,-78.19 740.73,-134.68 1003.75,-183.76 2174.61,-404.89 5756.69,-2024.15 6917.78,-2283.62 650.41,-145.42 1183.21,-122.97 1770.79,-306.73 1085.7,-339.7 536.78,-417.14 1578.66,-795.83 1255.71,-456.02 2115.01,-169.26 3602.81,-849.42 656.64,-300.39 664.05,-364.62 1484.04,-593.92 1341.63,-375.04 2250.01,-959.07 3570.91,-1177.84 1061.85,-176.03 1865.73,-247.55 2800.75,-761.46 1239.28,-681.55 2914.7,-661.26 4091.26,-1251.2 632.37,-317.26 -123.08,-69.06 813.33,-374.07 255.5,-83.13 799.59,-180.22 977.01,-210.72l8654.96 -2623.65c1180.42,-246.48 854.36,-245.84 1748.99,-625.81 1293.62,-549.02 2277.72,-358.28 3505.07,-947.26l3355.36 -1096.97c1719.56,-820.31 1547.73,-667.81 3697.53,-1051.65 1011.38,-180.54 722.9,-203.41 1473.73,-604.12 1202.87,-641.49 5282.2,-1520.77 6833.8,-2070.44l3713.64 -1035.65c1378.79,-410.16 1653.62,-821.07 3273.95,-1178.27 1239.38,-273.44 837.93,-247.88 1716.45,-658.03 940.28,-438.94 2360.41,-478.89 3493.47,-958.75l3439.88 -1012.45c1806.88,-688.53 1377.07,-747.5 3614.08,-1134.88 2034.67,-352.7 4708.91,-1931.68 6642.63,-2262.25 863.49,-147.57 1026.52,-85.17 1701.31,-376.54l8610.82 -2964.75c1076.67,-458.16 2562.32,-383.2 3588.52,-863.81 802.81,-376.22 234.56,-351.3 1384.37,-693.48l3713.96 -1035.22c1493.81,-529.69 5609.23,-1478.02 6774.19,-2130.47 1045.42,-585.43 2131.55,-495 3444.39,-1007.83 3172.03,-1238.63 2535.05,-575.34 5343.1,-1780.57l3242.8 -1209.53c1429.7,-703.89 2322.18,-184.4 3674.76,-777.57 2370.19,-1039.41 1712.15,-536.03 3345.48,-1106.75 1040.48,-363.55 427.34,-367.09 1633.32,-741.16l5326.34 -1500.47c1467.5,-327.03 745.24,-548.92 4019.94,-1323.05 1261.08,-297.92 1192.02,-664.69 2597.44,-964.44 543.01,-115.67 1354.62,-183.65 1976.25,-397.91l3331.09 -1121.46c767.8,-202.98 888.73,-382.77 1647.39,-727.41 1189.44,-540.22 2274.17,-392.33 3555.87,-896.03l8298.07 -2981.29c649.98,-188.7 1344.85,-229.3 1991.93,-382.56l4831.99 -1698.19c1048.54,-521.21 2716.66,-588.55 3674.01,-1074.85l11708.53 -4022.84c1175.05,-547.2 2379.64,-392.22 3717.83,-1031.35 979.8,-468.04 14.71,-214.91 1525.28,-552.46 553.96,-124.15 1329.06,-263.02 1895.91,-478.57l3315.41 -1136.93c2141.32,-945.86 855.43,-630 3408.63,-1043.7 688.86,-111.48 898.5,-268.82 1490.7,-587.15l8414.07 -2864.87c3000.3,-712.38 2192.55,-734.5 5231.62,-1595.52 919.23,-260.44 881.75,-458.49 1630.21,-743.85 2024.58,-771.98 4842.83,-1079.47 6797.28,-2107.7 764.57,-402.42 453.98,-400.38 1469.22,-608.63 2914.38,-597.68 4343.32,-1473.73 6888.14,-2313.05 616.68,-203.31 1292.55,-233.49 1932,-442.81 718.28,-235.2 770.91,-400.38 1402.63,-674.79 1144.66,-497.47 2432.26,-429.81 3472.1,-980.23 1986.02,-1051.76 5245.69,-1484.04 6853.02,-2348.17l13541.29 -4564.78c1105.67,-267.85 815.48,-344.32 1662.43,-712.38 1908.48,-829.87 4620.52,-1133.06 6645.1,-2259.46 951.45,-529.69 2538.16,-537.1 3665.31,-1083.66l3317.77 -1134.78c632.79,-270.65 687.14,-432.6 1407.25,-670.28 659.11,-217.81 1206.31,-253.14 1884.64,-490.17l4931.55 -1895.16c814.41,-345.72 1028.67,-225.11 1887.54,-486.95 663.62,-202.66 819.24,-380.41 1446.13,-631.4 1195.46,-478.57 2156.68,-514.33 3312.94,-1139.72 1242.71,-672.75 315.86,-232.09 1833.52,-541.29 1550.52,-315.54 1592.3,-910.42 3255.69,-1196.21 1460.2,-250.99 2620.21,-837.18 4243.01,-1396.62 1094.93,-377.29 1390.82,-776.49 2541.7,-1020.18 2005.25,-424.55 1716.02,-872.94 3223.58,-1228.75l6787.08 -2414.11c2193.19,-506.92 5799.54,-2047.67 8231.49,-2750.92l14851.02 -5629.53c788.09,-362.79 898.18,-267.1 1889.58,-485.23 1268.7,-279.02 788.42,-192.03 1723.43,-650.95 642.25,-315.54 -54.99,-30.5 607.56,-283l17350.3 -6395.18c854.68,-230.26 846.95,-334.76 1625.27,-749.43l17150.01 -6595.37c542.69,-112.23 347.11,19.65 1011.05,-176.35 1273,-375.14 618.83,-404.57 1535.16,-839.32 518.2,-246.05 1110.72,-313.07 1620.76,-457.09l6400.44 -2503.79c1784.76,-709.91 3179.01,-1551.38 5016.71,-2107.38 944.47,-285.68 774.78,-55.74 1622.15,-455.69 728.49,-343.57 567.93,-487.27 1562.44,-811.94l22561.95 -9197.65c1294.69,-678.76 -287.18,-180.54 1355.7,-721.83 666.73,-219.85 1111.26,-195.25 1826.43,-548.38l7844.85 -3434.19c1265.91,-428.41 600.47,-348.83 1531.94,-842.76l4624.81 -1905.04c951.45,-559.87 99.88,-358.93 1569.53,-805.28l13865.53 -6318.07c863.81,-437.11 92.9,-17.83 761.14,-425.94l23822.17 -11202.89c436.47,-235.2 257.33,-187.2 778.64,-408.44l16957.01 -7975.88c2643.95,-1598.63 5554.14,-2517.86 8336.95,-4129.49 974.97,-564.38 708.19,-276.87 1709.04,-665.66 1655.45,-643 2784.96,-1610.56 4463.82,-2362.56 664.37,-297.6 818.27,-398.99 1375.35,-702.6l34290.77 -18839.82c364.94,-235.96 378.26,-201.59 759.63,-428.09l21841.84 -15854.02c43.82,-42.32 105.57,-105.14 148.64,-147.89l2600.88 -2445.26c235.63,-283.96 312.1,-390.5 536.46,-651.05 39.95,-46.61 99.88,-110.41 139.83,-156.7 3931.34,-4537.07 2144.86,-2045.95 6064.61,-8182.73l3344.83 -8231.49c268.93,-1124.68 932.12,-2190.4 1076.57,-3375.33 874.76,-7178.65 1366.22,-10431.98 233.91,-17898.25 -340.78,-2248.93 -27.71,-4251.07 -760.49,-6066.32 -645.36,-1598.96 -511.76,-3846.49 -1310.05,-5516.66 -415.74,-869.72 -170.33,-5.58 -431.21,-1052.72 -622.91,-2497.89 -773.7,-4291.02 -1819.45,-6788.47 -499.3,-1191.7 -598.1,-1120.82 -878.52,-2683.04 -324.67,-1807.85 -467.72,-1039.41 -977.44,-2287.81 -423.47,-1036.61 -266.78,-1621.72 -830.19,-2731.69 -296.53,-584.36 -261.84,-347.01 -499.19,-984.74l-898.82 -2662.96c-315.22,-649.23 -28.46,58.53 -280.53,-610.35l-11681.79 -26607.88c-320.16,-573.19 -397.91,-466.33 -695.95,-1085.05l-1479.74 -3566.08c-394.37,-1298.78 -676.61,-1175.8 -1176.88,-2384.9l-4325.06 -9625.42c-869.72,-1466.1 -1501.12,-2785.61 -1967.76,-4561.99 -25.56,-96.77 -94.3,-377.61 -125.55,-468.69l-885.5 -1785.83c-206.85,-577.81 -154.22,-743.63 -457.2,-1323.48 -1053.05,-2016.85 -1619.9,-4214.87 -2534.29,-6073.3l-1013.42 -2251.4c-461.06,-1208.78 -611.85,-909.02 -1116.95,-2445.26 -320.48,-973.89 -749.86,-1451.39 -1036.29,-2228.64l-2067.75 -4758.96c-402.42,-688.96 -10.1,94.94 -325.96,-564.81l-865.31 -1805.81c-379.98,-628.61 -80.55,83.13 -495.32,-988.93 -311.99,-806.67 -104.82,-570.83 -526.9,-1254.1 -501.98,-812.9 -117.82,169.05 -715.49,-1065.4l-621.95 -1455.9c-2268.91,-3994.06 -4642.97,-8103.47 -7688.48,-11604.67l-2039.94 -2115.44c-925.56,-771.55 -852.96,-980.12 -1758.55,-1803.34l-842.76 -641.49c-303.19,-196.65 -171.09,-71.53 -555.68,-334.44 -2935,-2006.75 -6189.73,-4176.1 -9741.41,-4802.88 -1504.98,-265.71 -1319.83,-569.32 -2626.12,-935.66 -1467.5,-411.23 -4318.73,-244.44 -6184.78,-642.25 -1256.46,-267.85 -1151.32,-330.68 -2741.9,-523.14 -4917.8,-595.21 -13481.69,-567.17 -18585.29,525.18 -1938.34,414.77 -4277.06,284.71 -6392.82,434 -2514.32,177.75 -2944.45,1131.66 -5649.4,1177.63 -2246.89,38.23 -3780.34,800.66 -5977.72,1146.05 -1141.76,179.14 -1747.6,196.33 -2889.35,375.47 -1076.67,169.26 -1857.79,602.19 -2790.65,771.55 -1149.81,208.25 -1988.06,170.44 -3046.8,514.98 -1252.59,407.79 -1009.98,607.56 -2671.01,890.44 -1161.09,198.15 -1949.61,119.96 -2856.49,408.76 -1135.53,361.5 -1196.85,592.2 -2742.22,819.35 -2562.65,377.19 -5788.27,1250.45 -8186.27,2202.65 -1107.82,439.58 -1754.9,199.87 -3120.8,440.98 -1841.25,325.42 -1306.62,619.91 -2604.43,957.46 -1151.64,299.75 -1956.16,216.62 -2970.01,591.77l-8168.01 2220.58c-1256.46,301.47 -1362.03,729.56 -2558.57,1003.32 -1387.92,317.26 -1371.38,-24.59 -2703.23,561.59l-10779.85 3170.95c-1075.17,176.35 -1822.99,251.42 -2867.66,693.8 -1028.24,435.72 115.67,129.31 -1308.33,472.88 -635.59,153.26 -753.08,91.18 -1456.33,324.67 -1443.66,479.97 -593.49,592.84 -2637.72,924.17 -2170.75,351.62 -2831.57,1058.74 -5393.58,1433.13 -1173.33,171.41 -1546.76,495.65 -2451.17,813.65 -1152.39,404.89 -1594.45,261.19 -2737.71,824.5 -1424,702.28 -715.49,533.24 -2549.33,715.6 -1859.08,184.73 -1429.27,510.36 -2606.9,954.88 -948.33,357.96 -2080,270.65 -2997.08,564.81 -1019.43,327.46 -1216.51,672.1 -2599.16,962.72 -1504.98,316.18 -1297.49,106.54 -2603.67,661.15 -1096.65,465.57 -1651.26,425.62 -2816.54,745.35 -994.62,273.12 -1421.21,759.63 -2544.82,1016.96 -1471.69,337.66 -1532.69,40.7 -2938.87,623.02 -1250.12,517.77 -1063.25,480.61 -2568.66,696.59 -1340.55,192.14 -1572.64,504.45 -2672.73,888.73 -1059.17,369.77 -1763.81,201.16 -2832.33,729.88 -1646,813.65 -504.78,561.59 -2764.66,796.79 -1628.71,169.69 -2425.93,848.45 -3898.37,1147.77l-12570.19 3161.18c-1364.72,561.59 -1142.19,504.78 -2831.57,730.21 -1777.78,237.35 -2758.97,812.26 -5609.23,1217.9 -1186.33,169.05 -1663.82,533.56 -2698.29,863.17 -1601.1,510.04 -4183.4,500.59 -5975.25,1148.42 -1089.56,394.05 -10876.51,1177.63 -12773.17,1177.63z"/>
   <path class="fil0" d="M1032363.3 406049.21c77.43,-29.11 155.62,-1024.8 296.96,593.81 1245.94,103.43 3828.56,3124.67 4903.41,4298.11l6591.5 7952.36c37.16,49.83 89.79,119.96 127.27,169.37l1311.88 1656.41c495.75,568.36 22.12,-61.32 542.36,645.15l9039.56 12034.48c343.89,469.01 623.34,762.1 1061.53,1313.27l2444.51 3491.65c474.38,684.67 23.2,99.56 537.1,650.41 2232.82,2392.31 3893.11,5632.97 6026.37,8220.96l5831.44 8118.93c754.16,1543.22 1956.59,2804.94 2925.55,4198.12l5037.44 6835.52c809.47,1063.57 964.44,1806.45 1874.54,2874.32 324.56,380.73 263.99,301.9 553.86,633.44l279.02 314.89c39.31,47.26 95.05,114.92 133.6,163.03l10974.78 15442.36c372.57,581.67 515.94,875.41 865.85,1508.53l1834.59 4101.78c1021.26,3838.44 29.43,8305.06 29.43,12140.06 -1667.37,0 -2471.89,-991.83 -3566.08,-2073.34l-3896.54 -4711.06c-752.01,-840.29 -112.55,-43.07 -612.5,-871.54l-3855.62 -6236.34c-35.44,-51.87 -91.83,-118.14 -128.66,-168.29l-2341.51 -3594.75c-273.44,-364.94 -408.01,-466.97 -532.16,-655.24l-1949.18 -3096.96c-586.51,-771.98 -521.96,-724.3 -1026.52,-1644.49 -464.07,-847.38 -436.04,-691.33 -950.05,-1424.43l-2942.3 -4478.22c-702.17,-1055.95 -1419.49,-1867.56 -2082.04,-2964.1 -241.65,-399.63 -204.49,-392.33 -432.28,-754.8 -233.49,-371.28 -193.53,-249.92 -483.83,-703.57 -430.46,-673.5 -552.14,-1078.72 -975.29,-1696.15l-2929.09 -4194.57c-721.08,-1260.65 -2098.15,-2603.78 -2677.99,-3852.08l-3180.73 -4833.38c-35.76,-51.55 -89.46,-119.96 -124.48,-172.16l-4587.65 -6988.67c-334.01,-519.27 -214.91,-266.46 -586.08,-897.86l-555.68 -928.36c-36.84,-49.73 -95.69,-114.59 -133.6,-163.35l-275.16 -318.65c-353.45,-453.98 77.43,139.19 -256.36,-336.91l-15739 -23441.11c-1098.69,-1528.5 -2463.84,-3221.43 -3037.67,-4976.76 -877.13,-2682.61 -1932.43,-4021.77 -2510.88,-7580.86 -174.52,-1075.49 -870.47,-2289.96 -903.44,-3300.26 -1.72,-58.53 90.11,-208.25 49.83,-298.68zm-44226.04 -105074.11c0,1769.61 254.86,3489.93 694.55,4945.19 476.1,1576.51 443.77,3253.33 1004.72,4634.91 660.5,1627.74 573.83,2959.92 1043.27,4596.35l1102.99 4536.43c248.52,1479.1 1741.9,5431.81 2370.83,8908.1 331.33,1831.47 882.5,1924.37 1243.57,4396.27 245.41,1677.46 935.34,2738.24 1186.01,4453.3l2078.81 6232.15c540.97,1274.4 564.49,3164.62 1183.97,4455.77 420.68,877.23 356.46,1307.37 633.12,2335.18 201.59,749.22 523.03,1176.88 757.27,1914.17 268.82,846.3 267.42,1550.95 543.01,2425.28 399.95,1269.78 398.99,562.66 770.16,1901.18 204.81,738.69 255.93,1579.62 558.47,2409.5l3402.4 10548.08c293.41,1427.87 383.84,1089.56 874.66,2093.64 468.69,958.75 290.62,1051.65 479.97,2191.37 375.79,2259.14 1878.73,4131.96 2254.52,6353.19 234.13,1381.9 -33.29,970.03 574.91,2096.43 796.47,1474.8 394.05,247.88 776.17,2192.12 271.4,1380.94 795.83,1618.61 1135.21,3020.17 441.73,1824.06 975.61,3917.7 1912.02,5508.6 32.54,55.42 85.49,123.08 117.39,179.14 32.33,56.81 80.66,127.27 111.16,185.8 31.25,59.61 73.57,132.85 102.03,194.93 176.67,389.54 272.04,905.91 325.63,1158.62l3000.94 8277.78c1358.17,2090.09 -227.15,548.27 1544.61,4095.45l2477.91 6129.8c361.08,772.63 284.29,1170.22 731.6,1939.3 289.98,498.55 276.66,260.12 574.26,910.1 252.82,551.49 174.95,553.21 347.76,1136.28 451.51,1521.41 1073.13,2453.31 1836.31,3803.32 389.54,688.86 489.42,1108.14 933.3,1738.15l24606.72 38022.24c31.9,57.57 73.68,133.6 107.72,189.34l502.31 684.67c36.52,51.23 89.03,120.29 124.8,172.16l5939.49 8901.44c478.46,681.77 705.29,1094.83 1189.77,1778.42l4989.11 7477.44c591.77,777.89 -310.6,-476.42 257.33,336.16 1643.42,2350.64 5170.94,7031.84 6312.37,9121.93l5785.58 8165.22c467.94,637.41 633.12,1205.34 1092.35,1875.94l13816.13 17943.79c4636.74,5044.74 4664.44,3525.37 8934.41,-336.16l3340.65 -3783.13c1352.48,-1945.96 1569.1,-2212.1 2575.96,-4547.59 462.03,-1070.98 567.6,-668.56 889.05,-1782.29 268.6,-929.43 123.4,-1625.27 338.31,-2630.09 260.44,-1217.47 465.9,-1208.35 693.15,-2274.82 475.35,-2228.31 284.29,-4565.21 -420.04,-6637.47 -556.76,-1637.83 -282.24,-2400.69 -592.52,-4156.34l-2031.88 -7763.12c-190.74,-737.29 -179.14,-1264.19 -352.7,-2021.79 -347.01,-1514.86 -284.29,-711.63 -709.59,-1665.22 -525.07,-1177.63 -468.37,-2857.89 -964.34,-4081.81 -610.78,-1507.02 -901.72,-3777.76 -1607.12,-5516.23 -577.7,-1423.36 -118.46,-1183.21 -1260.33,-3785.49 -473.95,-1079.79 -267.42,-2771.32 -796.15,-3953.14 -1272.57,-2845.21 -1778.42,-6191.44 -2285.66,-7509.23 -1074.85,-2793.02 -483.83,-1508.85 -1123.93,-3922.21l-766.4 -1608.08c-512.51,-1230.9 -564.81,-2874.43 -1048.97,-3996.96 -284.61,-659.75 -353.34,-1129.84 -548.59,-1826.1l-1890.33 -5529.97c-715.49,-1443.01 -326.71,-2246.79 -988.61,-3760.25 -365.26,-834.7 -416.17,-776.17 -686.39,-1688.42 -272.04,-917.4 -302.54,-1088.17 -701.21,-1970.23 -638.06,-1412.4 -427.66,-2434.31 -1001.6,-3747.58 -462.67,-1058.42 -378.58,-321.87 -742.13,-1632.68l-1225.64 -3820.18c-223.28,-720.43 -254.11,-1332.5 -443.77,-1930.6l-1244.54 -3801.28c-559.55,-1071.3 -565.13,-173.13 -833.31,-1541.07l-1060.89 -3688.83c-254.86,-662.22 -288.47,-1445.05 -519.49,-2151.42l-1248.84 -3500.45c-317.9,-1051.11 -448.28,-979.59 -697.99,-1676.5 -278.27,-776.49 -260.44,-1417.02 -510.79,-2160.55 -351.19,-1041.23 -395.01,-569 -786.59,-1588.11 -217.38,-565.46 -310.28,-1271.17 -526.25,-1848.23 -389.86,-1040.16 -374.82,-471.59 -733.11,-1641.38l-5240 -14350.44c-445.28,-1243.89 -410.91,-551.82 -923.09,-1748.03l-4901.69 -9939.45c-448.07,-985.49 247.13,695.95 -161.96,-431.53 -921.7,-2539.88 -2714.19,-4806 -3762.4,-7220.11 -493.61,-1136.5 -437.44,-857.15 -958.43,-1712.91l-2875.39 -5435.68c-333.8,-871.86 199.44,387.39 -151.11,-442.38l-17884.18 -31981.16c-231.77,-383.2 -269.25,-529.69 -399.31,-788.42 -1603.9,-3189.53 -3778.19,-6095.75 -5165.35,-9378.94l-6490.87 -11317.92c-35.76,-51.23 -95.05,-115.02 -130.49,-166.15l-837.82 -1833.84c-692.72,-1657.92 -1824.39,-3188.57 -2679.82,-4740.91l-1812.14 -3233.68c-223.6,-358.93 -278.38,-549.67 -398.24,-788.74l-6562.08 -11841.06c-1989.46,165.5 -2861.32,1077.75 -4001.04,2232.5 -1448.6,1467.82 -2556.1,2143.36 -4280.92,4029.82l-12144.89 11303.96c-55.42,33.94 -133.93,73.57 -188.59,108.26l-2681.97 1473.51c-1035.54,494.36 -5197.25,1978.61 -5197.25,3113.5z"/>
   <path class="fil0" d="M879798.22 19590.11c0,-2774.12 253.46,-2281.15 1731.92,-549.67 57.14,66.91 210.29,264.63 266.03,331.54l2276.32 2770.68c486.95,704.22 533.24,764.57 1036.61,1338.08l277.63 315.86c55.74,65.94 209.64,262.27 265.06,328.53 39.31,47.36 93.22,116.74 132.85,164l6588.71 8252.54c149.71,190.74 241.54,313.07 381.8,508.32l5325.59 6844.32c386.64,489.42 697.23,1019.43 971.1,1403.38l1065.72 1308.66c262.16,393.3 146.17,315.11 434.64,752.65l14051.44 19489.48c327.03,458.92 706.36,899.25 1047.14,1326.91l15639.87 23837.31c495.65,1154.86 1394.58,2008.15 2016.85,3029.3 386.31,634.62 435.4,1024.37 778.21,1595.84l6011.34 11204.72c290.3,736.86 528.3,980.23 767.37,1607.01 352.38,923.42 3372.54,9327.39 213.83,8167.37 -556,-204.06 -822.03,-861.02 -1158.94,-1285.24l-1037.69 -1337.44c-39.31,-47.36 -97.09,-113.2 -137.15,-159.49l-430.78 -459.99c-2444.62,-2492.52 -812.69,-936.73 -2754.89,-3478.33l-4158.49 -5636.62c-35.01,-52.52 -86.56,-122.33 -122.33,-174.2l-6270.38 -8273.91c-460.63,-606.16 -534.95,-877.77 -941.24,-1433.45 -380.73,-520.24 -590.05,-686.06 -1062.28,-1312.2l-4106.29 -5688.82c-339.38,-481.36 -677.26,-889.69 -1041.88,-1332.5l-13924.49 -18428.7c-464.5,-613.46 -524.11,-887.97 -933.51,-1441.51 -702.28,-949.73 -1597.99,-1585.64 -2179.23,-2569.74l-10665.15 -14267.63c-363.87,-615.93 -377.61,-905.91 -811.18,-1563.19 -332.08,-503.16 -602.72,-876.81 -956.07,-1418.85l-1231.22 -2033.6c-733.75,-1422.28 -1853.49,-2644.38 -2314.45,-4215.73l-797.97 -1873.04c-916.33,-1594.77 -1321.97,-3461.25 -1988.06,-5135.6 -817.52,-2055.4 -707.87,-3204.25 -1256.78,-4976.76 -654.6,-2113.93 -999.56,-3079.45 -999.56,-5530.3zm-10388.92 -5342.78c0,3875.28 -138.12,8073.72 311.99,11857.81l1479.53 7721.77c796.15,1820.52 465.47,3677.88 961.22,5865.81 175.6,774.02 419.61,876.05 668.24,1706.25 412.63,1377.71 274.51,2677.67 789.81,3959.05l5751.54 22149.64c402.1,1894.52 813.33,1302.32 1159.37,3292.96l2547.93 9325.24c224.36,957.03 288.15,845.55 668.56,1705.5 626.14,1416.7 341.42,2294.26 827.72,3624.61l1753.93 5072.88c368.06,942.32 161.53,899.14 417.14,1957.88 346.68,1438.39 610.03,970.46 980.55,1987.42 201.27,552.14 -20.3,-153.9 129.74,463.86 41.03,168.62 150.36,904.08 167.86,1019.43l1493.81 5333.33c423.9,1053.48 370.53,293.09 738.37,1636.12 814.73,2975.7 968.63,2432.59 1279.55,3469.31 212.11,707.44 117.82,1284.81 294.17,2080.64 334.76,1511.64 644.29,1133.7 1156.47,3295.32 384.6,1623.23 830.95,1700.34 1231.22,3518.07 278.06,1261.72 220.92,809.14 654.6,1719.89 321.77,676.29 58.85,-140.91 336.48,851.24l4653.92 12858.34c611.74,1137.57 578.45,2234.87 1242.07,3506.79l1973.78 4853.04c136.72,293.74 444.85,739.98 445.92,741.8l10518.66 20943.98c927.18,2281.58 2437.85,4536.75 3670.79,6717.7 420.68,744.27 75.72,148.32 491.89,695.52 37.48,49.08 98.81,111.16 135.97,160.99 37.16,49.73 94.73,114.92 130.49,166.15l7850.33 13817.52c425.62,754.05 78.19,144.77 494.68,692.72l814.08 1560.4c191.06,444.85 56.06,215.23 419.61,767.8l5131.42 8819.07c35.76,51.12 92.9,116.74 127.91,168.62 1203.51,1784 2246.79,4591.74 3428.6,6366.72 603.05,905.59 1395.97,1883.35 1868.96,2880.01 279.77,589.62 441.73,947.9 786.27,1588.43l5019.18 8931.19c448.07,691.33 410.59,819.67 789.17,1585.32 74,150.04 386.64,691.76 424.87,762.53 280.85,521.96 113.95,218.02 392.01,795.07l2537.09 4586.58c191.71,333.8 148.64,279.02 327.03,563.74l3657.58 7027.97c768.76,1495.53 2105.23,2922.76 2945.85,4177.82l3096.31 -1652.98c572.11,-404.89 -138.87,1.4 512.83,-377.61l7816.07 -3166.01c1400.59,-692.72 701.21,-758.34 2806.34,-755.44 3719.66,4.51 7251.69,-403.18 11007.75,-291.05 4413.02,132.21 13630.65,2396.93 11122.99,-3405.41 -785.3,-1817.08 -2845.64,-10251.23 -3812.88,-12215.77l-1363.64 -3681.74c-358.71,-801.73 -320.8,-1339.91 -568.36,-2103.52 -323.92,-1000.85 -600.9,-1072.7 -846.95,-1824.39 -231.77,-708.51 -241.86,-1426.47 -519.6,-2151.74 -1229.83,-3214.77 -534.63,-1875.94 -1238.85,-4103.82 -396.19,-1253.35 -425.94,-603.69 -811.94,-1859.51 -314.14,-1021.9 -159.92,-1085.37 -584.47,-2086.98l-1046.82 -3999c-381.37,-1039.41 -601.22,-704.97 -852.96,-1818.37 -242.61,-1070.98 -25.56,-1221.77 -404.89,-2266.44l-1973.67 -6040.44c-233.16,-863.49 -180.54,-1373.96 -541.29,-2130.04 -587.26,-1230.26 -429.17,-63.15 -812.37,-1859.18 -130.38,-611.74 -256.25,-1567.7 -464.07,-2207.16l-1141.54 -4201.66c-276.55,-811.94 -508.96,-878.2 -789.81,-1881.2 -260.12,-929.32 -169.37,-1308.66 -531.09,-2140.25 -386.74,-889.05 -609.38,-601.97 -806.35,-1865.41 -462.46,-2968.94 -315.22,-1714.62 -1081.51,-3963.88 -242.61,-712.38 -248.95,-1445.8 -494.36,-2177.08 -356.89,-1064 -562.66,-795.83 -790.89,-1880.88 -807,-3840.48 -843.51,-2706.02 -1193.31,-4149.04l-1266.66 -4076.44c-315.86,-898.93 -135.97,-1250.55 -376.86,-2294.58l-1328.31 -4014.04c-392.33,-1031.03 -497.15,-614.21 -799.69,-1871.75 -246.48,-1024.69 -82.05,-1317.03 -466.54,-2205.12 -394.8,-911.07 -577.81,-549.99 -808.5,-1862.51 -589.3,-3354.39 -2050.46,-5648.54 -2459.22,-7929.7 -292.45,-1633.65 -1034.25,-2342.16 -1357.85,-3984.61 -597.03,-3026.18 -3493.47,-9306.66 -3618.27,-9738.94l-1034.9 -2823.52c-194.5,-419.29 -204.38,-660.83 -364.19,-1120.06 -463.43,-1330.14 -468.04,-739.76 -940.6,-1730.52l-6232.47 -12170.45c-132.53,-261.19 -212.54,-537.1 -359.79,-827.72 -30.5,-60.36 -67.66,-138.54 -99.88,-196.75l-1262.05 -2003.1c-296.21,-469.76 66.91,104.07 -244.76,-348.83l-2620.86 -4206.17c-33.94,-53.38 -87.32,-121.68 -121.68,-174.95l-4502.38 -7073.51c-275.59,-393.72 -849.74,-1037.8 -1200.4,-1471.04l-2955.62 -4464.9c-37.91,-49.08 -92.58,-117.17 -130.06,-166.9l-4414.42 -6567.66c-36.19,-51.23 -88.71,-120.93 -125.23,-171.84l-3506.47 -5101.13c-53.91,-68.09 -231.66,-240.14 -287.4,-306.41l-18510.32 -27496.29c-466.33,-663.3 -589.73,-1059.06 -1022.98,-1648.68l-1117.27 -1554.17c-447.75,-653.42 -598.43,-733 -1119.1,-1552.34 -302.87,-476.1 -234.56,-350.23 -473.2,-714.1l-13013 -20230.64c-451.51,-547.52 -777.89,-1036.29 -1095.25,-1576.51 -1270.42,-2164.73 -2581.55,-4620.2 -4852.29,-5833.16 -1645.24,-878.52 -4405.61,-1832.12 -6181.67,-1832.12 -17.18,0 -827.72,472.56 -945.86,538.18l-2501.97 1950.58c-43.82,42.42 -101.71,108.69 -146.6,150.36 -44.46,41.35 -105.9,104.5 -151.75,144.77 -194.28,168.62 -311.35,243.37 -508.75,381.8 -1123.93,786.7 -2102.01,1898.71 -2743.94,3192.33 -1267.95,2555.34 -2499.6,4582.71 -2499.6,7889.31z"/>
   <path class="fil0" d="M646498.12 345497.99c0,1380.18 75.72,3076.34 593.49,4155.7 2240.88,522.07 6741.22,512.94 9508.57,583.07 1571.68,39.95 2771,426.59 4350.3,695.84 2119.95,361.08 4705.04,194.18 6794.49,625.81 2466.95,509.39 3803.43,931.04 6653.26,1064.32 1897.63,88.71 2111.14,691.01 4014.36,1031.35 2047.02,366.34 2759.08,6.34 4673.14,669.63 1747.27,605.09 2299.84,441.3 4257.72,788.09 1641.81,290.62 2190.08,919.87 3992.34,1053.8 3819.21,283.96 4598.18,927.28 8580.64,1511 1555.57,228.22 474.38,167.22 1716.77,658.03 1945.43,768.44 8795.55,1514.86 10552.27,2210.7 1841.25,729.24 2832.65,465.25 4437.3,905.91 1253.67,344.21 597.68,317.9 1700.98,673.07 1225.64,394.8 2882.05,300.5 4313.14,733.11l4141.3 904.41c1604.54,289.23 1005.04,285.04 1990.21,681.55 1312.52,527.97 2762.52,390.5 4316.26,729.56 728.49,158.74 839.97,361.4 1754.25,620.12 1509.6,427.77 3045.83,337.66 4272.76,773.06l4145.28 900.97c1278.91,192.14 965.09,265.71 2044.55,626.78 1816.65,607.56 2594.22,342.92 4756.92,585.54 1502.19,168.62 2084.51,906.88 3893.86,1152.28 1779.49,240.9 2776.16,430.13 4205.42,840.72 1402.31,402.75 3059.8,360.75 4448.47,597.35 1752.21,298.68 2651.04,867.35 4401.85,940.6 1478.35,62.08 3285.87,107.61 4668.2,377.94 1673.6,327.35 1058.74,502.73 4146.57,899.14 1219.3,156.7 3194.15,157.77 4672.82,373.1l6397.97 429.06c1195.46,0 2955.73,-2862.08 3552.01,-3868.62l1425.83 -2432.59c141.23,-248.63 209.64,-479.64 390.5,-796.9 1352.9,-2370.19 3593.03,-5662.83 4638.78,-8124.52l3518.07 -6573.68c526.15,-897.43 273.44,-849.1 646.76,-1727.94 329.61,-776.92 557.83,-909.35 921.38,-1749.74l1774.98 -3271.16c893.56,-1572.75 1364.72,-3491 2382.75,-5037.76l3305.63 -6786.11c514.66,-1468.14 2911.16,-5417.74 3686.58,-7592.68 31.9,-89.79 116.1,-355.49 155.3,-438.3 1382.33,-2915.35 3754.67,-3052.06 208.68,-7295.4 -39.63,-47.36 -96.44,-113.95 -135.32,-161.64l-1060.56 -1313.92c-1117.92,-1493.49 -1876.9,-2996 -3253.33,-4464.25 -194.18,-207.17 -363.12,-345.61 -454.62,-435.72l-300.5 -293.09c-2019.64,-2073.66 -3515.49,-4304.01 -5555.86,-6316.99l-6389.92 -7263.93c-691.33,-942.64 -1105.78,-1239.28 -1784.11,-2074.3l-3467.48 -4249.67c-565.46,-723.65 -1018.79,-1515.51 -1596.92,-2261.93l-847.7 -933.19c-344.21,-388.46 -587.58,-784.66 -870.47,-1207.38 -1793.56,39.95 -7272.63,2357.62 -8967.71,3202.1 -662.87,329.93 -58.85,109.01 -1060.14,423.8 -381.7,119.96 -594.56,129.42 -1128.76,355.49 -533.24,225.86 -661.26,366.02 -972.18,511.54 -576.3,269.57 -643.32,237.03 -1352.15,429.06 -1764.78,478.25 -847.06,435.07 -2002.45,965.52l-6857.96 2640.51c-1630.21,465.9 -788.42,127.27 -2119.63,848.45 -1170.54,633.76 -2300.06,645.68 -3503.57,1245.51l-3290.92 1458.48c-239.07,83.77 -925.78,191.06 -1222.74,261.09 -867.03,204.38 -530.12,88.71 -1090.64,393.72 -481.36,261.84 -266.46,278.7 -911.82,572.11 -621.95,282.57 -691.43,193.21 -1413.59,367.41l-4475.42 1757.8c-423.47,206.85 -427.02,245.41 -1029.63,454.3 -625.81,216.73 -536.67,91.5 -1123.93,360.43 -1462.99,669.63 -178.07,556.76 -2212.85,1051.76 -1184.61,288.47 -1158.94,424.55 -2122.74,845.55l-5588.51 2129.08c-898.82,523.68 182.69,221.13 -1159.69,621.2 -1279.55,381.37 -1157.87,-58.85 -2374.05,593.81l-3290.81 1458.48c-1672.31,975.29 -4661.65,1475.23 -6589.03,2612.48l-7984.36 2997.72c-1121.14,369.13 -1105.67,740.41 -2215,1050.36 -1307.9,365.26 -1079.68,122.01 -2237.66,730.53l-6682.26 2815.89c-932.55,306.73 -1511,316.83 -2320.46,647.51 -803.56,328.43 -320.16,170.01 -1006.54,477.82l-5728.77 2285.34c-1927.38,1118.02 -6539.2,2203.72 -8902.09,3564.36 -1079.79,621.84 -1113.08,441.62 -2205.12,762.75 -1667.69,490.49 -567.93,534.31 -2233.9,1031.46l-4607.2 1625.91c-3096.96,1496.6 -1827.18,569.32 -4386.71,1846.51 -793.68,395.77 -1309.41,331.97 -2207.59,760.38 -1222.84,583.39 -830.52,466.65 -2336.89,928.36 -2315.95,709.59 -4389.61,1921.48 -6635,2566.19 -1119.1,321.12 -932.87,567.93 -2283.3,981.63l-4499.59 1733.96c-3878.82,2132.19 -6952.58,839.97 -6952.58,5513.43z"/>
   <path class="fil0" d="M818356.56 272777.29c-2392.63,0 -2313.05,550.1 -4343.54,1296.09 -1294.05,475.35 -645.47,238 -1571.35,803.13l-373.64 220.17c-5637.91,3247.42 -7542.63,2082.47 -5587.43,7775.79l7431.79 11267.44c40.27,46.29 100.63,110.08 141.98,154.98 41.35,44.89 106.54,104.07 148.64,148.32l2397.25 2648.57c41.67,44.89 102.03,108.26 143.7,153.15l7719.95 8901.76 2074.09 3862.71c1051.01,1881.09 1806.45,5478.74 1414.55,7671.62 -241.97,1354.19 -421.76,2744.26 -595.63,3870.66 -359.03,2322.18 -693.15,1533.76 -1156.58,3295.75l-2850.15 7835.29c-983.35,2148.3 -2726.11,5013.28 -3444.07,7241.48 -486.52,1509.92 -1611.95,2661.88 -2312.41,4217.77l-1420.78 3031.01c-495.75,1226.39 -1503.26,2376.63 -2306.07,4224.11l-1531.72 2920.61c-219.85,518.84 -22.45,121.36 -302.22,588.33 -266.35,444.52 -215.23,231.34 -480.61,706.36l-3611.29 7371.54c-200.51,365.26 -41.35,-11.92 -266.35,623.67l-1119.1 2442.79c-651.37,1612.7 -358.28,3722.45 -2217.36,4312.82 -1345.82,426.91 -466.22,-173.56 -1713.23,661.47 263.99,1131.66 333.69,971.85 914.29,1757.05 475.67,643 558.05,970.13 1460.52,1210.92 961.97,-704.97 878.85,-1347.64 1186.97,-2671.33 1256.14,-292.45 2855.85,-240.14 3936.6,-515.73l3495.94 -956.39c2068.4,-363.12 1219.94,-913.21 3259.67,-1192.67 942.32,-128.99 1185.58,-57.78 1922.87,-451.83l7698.57 -3877c51.55,-35.76 116.74,-93.33 167.97,-129.09l6805.01 -5661.32c41.03,-45.32 103.75,-106.97 144.45,-152.51l4418.93 -7453.92c27.71,-65.62 57.57,-145.85 87.32,-209.32l4128.74 -11602.96c585.43,-1345.82 401.78,-2558.89 739.66,-4009.2 1206.73,0 1641.38,26.63 2532.25,436.15 2684.01,1233.69 3784.1,1301.35 5506.45,3991.59 1170.22,1828.25 2039.29,4251.07 3838.76,5659.71 1051.44,823.11 684.02,938.88 1557.93,1707 626.14,549.99 1017.71,582.21 1772.19,1196.1 2939.62,2393.39 3529.88,972.82 6383.26,-304.26l7274.45 -3707.73c863.38,-596.6 1176.88,-1008.26 1021.58,-2313.37 -2.15,-19.01 -280.85,-1294.69 -321.87,-1499.83 -550.42,-2753.07 -3490.36,-7866.55 -5270.5,-10166.6l-8124.2 -9091.43c-432.28,-429.49 -594.67,-653.2 -968.63,-1108.89 -572.22,-697.66 -1180.1,-1405.1 -1642.88,-2215.64 -278.27,-487.27 -312.32,-648.15 -632.37,-1148.85l-3099.1 -6695.9c-342.5,-1844.79 -654.49,-5046.57 -640.1,-7097.46 11.49,-1620.01 240.47,-1923.95 312.32,-3257.52 66.91,-1237.13 -28.35,-2618.06 -13,-3871.73l308.56 -7408.7c0,-2874.32 -15.47,-4846.27 348.83,-7368.32 651.37,-4507.32 838.57,-9749.14 838.57,-14596.49 0,-3807.29 -97.84,-7518.79 374.07,-11201.93 339.27,-2650.39 1920.08,-11376.88 -77.54,-12840.51 -1309.73,877.13 -1862.94,2739 -2199.85,4330.33 -375.79,1777.35 -1925.02,4579.49 -2514.64,7280.04 -346.68,1588.43 -529.37,1111.26 -929.43,2335.82 -269.25,824.18 -285.36,1818.48 -637.63,2627.19 -308.56,708.83 -329.93,381.8 -624.42,1156.9 -304.58,801.73 -124.8,620.55 -295.56,1485.01l-1755.33 4774.85c-576.63,1202.44 -447.32,2633.21 -1006.11,4039.71 -242.61,610.35 -293.74,368.81 -581.57,1199.65 -350.98,1014.17 -225.43,1686.59 -605.09,2659.41 -1120.82,2869.49 -904.19,3420.55 -1523.67,5006.62 -485.55,1242.39 -481.68,1425.4 -688.86,2872.92 -205.02,1429.7 -469.01,1337.12 -831.16,2434.09 -563.74,1708.61 -381.8,3770.78 -771.98,5758.09 -22.12,112.23 -258.4,997.09 -319.4,1183.21 -521.31,1597.99 -403.18,1612.27 -2398.97,7.41 -5064.08,-4072.25 -6021.11,-7295.08 -9012.92,-10878.33l-858.55 -922.34c-329.93,-356.56 -510.47,-543.44 -843.51,-937.49l-4274.16 -4036.81c-935.66,-797.54 -1825.78,-1803.77 -3242.16,-1803.77z"/>
   <path class="fil0" d="M972109.04 239830.29c3671.22,0 7815.75,-106.86 11025.58,253.46 3789.36,425.3 6827.46,-340.35 10470.54,511.86 3098.78,724.62 6926.7,431.96 10012.48,970.03 3234.32,563.74 6606.54,936.09 10342.95,936.09 -527.65,720.11 -1035.97,650.62 -1995.47,1269.46l-4167.3 2362.78c-865.85,649.66 -1593.37,737.29 -3364.49,1681.44l-2241.52 1320.26c-822.14,386.96 -425.3,84.09 -1201.79,579.1l-11426.93 5491.74c-468.04,224.03 -796.9,268.18 -1299.21,481.68 -3127.46,1328.42 -2144.54,1252.59 -6104.99,2503.15 -1115.12,351.95 -1183.86,682.95 -2368.79,896.03 -1115.55,201.27 -2054.33,333.04 -3228.74,333.04 -335.19,-1438.72 -2301.56,-5433.21 -2670.37,-6827.78 -543.76,-2057.44 -699.38,-1369.01 -1026.09,-2238.73 -438.62,-1167.43 239.39,-1869.6 -1063.36,-5467.25 -451.51,-1247.33 -188.91,-1464.71 -323.59,-2976.03 -94.62,-1066.04 -750.93,-2080.32 631.08,-2080.32zm-12169.49 0c0,1311.88 208.89,2481.02 476.74,3678.63 305.76,1365.15 311.35,2140.25 567.28,3588.09 363.55,2055.4 1648.04,4273.83 2225.41,6085.66 196.33,615.93 162.28,995.27 364.3,1713.23l8920.34 19277.79c246.48,412.95 215.55,248.52 477.82,709.48l3753.27 6932.28c115.35,185.48 205.45,384.92 305.98,584.47l288.58 601.54c31.58,57.89 75.39,132.21 107.94,189.34l7427.28 13651.38c311.99,373.32 1086.13,764.25 1529.58,770.48 832.23,11.92 391.25,-113.52 1427.22,-509.72l5323.44 -2706.45c55.74,-33.62 133.5,-73.57 188.59,-108.26 610.99,-384.92 609.27,-468.8 1176.13,-901.4 503.16,-383.84 687.57,-495.32 1193.1,-884.43l1366.11 -1008.58c373.43,-311.35 82.38,-73.68 463.1,-427.34l2518.94 -2230.03c44.89,-41.78 108.26,-102.35 152.51,-144.45l7332.24 -7805.54c728.17,-844.16 1183.86,-1396.72 1889.58,-2265.8l1736.43 -2419.27c833.95,-1343.45 2030.81,-2341.19 2900.95,-3628.8l3977.31 -6411.61c1721.61,-2422.49 3110.27,-5366.3 4396.16,-8070.28l3344.83 -7340.61c625.06,-1874.97 2348.17,-6410.97 2435.81,-7953.22 168.29,-2961.63 1167.1,-6059.34 161.31,-6960.63 -705.07,-631.4 -1826.21,-992.15 -2986.23,-1193.74 -1242.82,-215.87 -2781.42,-170.33 -3744.89,-410.48 -1716.34,-427.66 -1175.05,-767.8 -3507.44,-944.79 -7507.51,-569.64 -6450.6,-1205.23 -15751.67,-1167.43 -1811.07,7.41 -2391.99,-322.84 -3851.76,-322.84 -1459.77,0 -2040.37,330.25 -3851.76,322.84 -5309.81,-21.69 -26624.74,-482.76 -29305.96,375.79 -380.73,122.01 -843.08,336.27 -1458.69,619.48 -1438.39,661.58 -2669.29,1629.14 -3063.99,3168.91 -248.63,968.95 -178.5,716.14 -470.51,1607.33 -190.74,583.39 -435.4,1380.61 -435.4,1938.98z"/>
  </g>
 </g>
</svg>
